<?xml version="1.0" standalone="no"?>
<!DOCTYPE svg PUBLIC "-//W3C//DTD SVG 20010904//EN"
 "http://www.w3.org/TR/2001/REC-SVG-20010904/DTD/svg10.dtd">
<svg version="1.0" xmlns="http://www.w3.org/2000/svg"
 width="700.000000pt" height="700.000000pt" viewBox="0 0 700.000000 700.000000"
 preserveAspectRatio="xMidYMid meet">
<metadata>
Created by potrace 1.11, written by Peter Selinger 2001-2013
</metadata>
<g transform="translate(0.000000,700.000000) scale(0.100000,-0.100000)"
fill="#000000" stroke="none">
<path d="M3180 6984 c-116 -35 -162 -74 -361 -299 -130 -148 -170 -193 -184
-209 -6 -6 -44 -49 -85 -96 -41 -46 -79 -90 -85 -96 -5 -6 -39 -44 -75 -84
-36 -40 -70 -78 -75 -84 -6 -6 -62 -69 -125 -141 -63 -71 -117 -132 -120 -135
-3 -3 -35 -39 -70 -80 -36 -41 -70 -79 -76 -85 -6 -5 -82 -91 -170 -190 -87
-99 -161 -182 -164 -185 -3 -3 -39 -43 -79 -90 -41 -47 -80 -90 -85 -95 -10
-9 -89 -98 -172 -194 -16 -18 -41 -46 -55 -62 -14 -15 -52 -58 -85 -95 -32
-37 -66 -75 -74 -84 -8 -9 -44 -49 -80 -90 -36 -41 -72 -82 -80 -90 -8 -8 -46
-51 -85 -95 -38 -44 -83 -93 -98 -110 -147 -158 -180 -400 -83 -620 59 -133
71 -146 606 -665 161 -157 332 -323 379 -368 97 -95 549 -533 680 -660 47 -46
203 -198 346 -337 143 -139 300 -291 349 -338 l89 -84 -12 -84 c-7 -46 -14
-97 -17 -114 -11 -79 -14 -134 -19 -311 l-4 -192 97 -95 c279 -274 327 -315
428 -366 123 -62 291 -76 402 -33 30 11 132 73 226 137 108 72 186 118 207
121 47 7 133 48 180 85 22 17 126 137 232 267 105 131 199 246 208 257 17 20
173 211 243 297 l38 47 -20 33 c-117 190 -258 506 -303 676 -29 107 -29 327
-1 467 36 184 108 391 229 660 102 227 216 539 238 654 36 186 44 258 45 406
0 210 -19 338 -86 566 -30 103 -34 127 -33 236 0 66 -5 159 -11 207 -7 48 -10
89 -8 91 14 14 192 -588 213 -720 4 -22 8 -51 11 -65 19 -113 23 -180 19 -345
-3 -205 -4 -210 -41 -360 -36 -145 -122 -386 -199 -560 -118 -266 -228 -578
-250 -705 -3 -19 -8 -42 -10 -50 -18 -65 -26 -297 -13 -399 19 -145 111 -456
194 -651 25 -57 46 -106 48 -108 2 -1 138 163 302 365 165 202 352 432 418
512 65 81 162 200 215 266 53 66 103 127 111 135 8 9 58 70 110 135 52 65 156
193 230 284 152 187 162 201 189 269 69 173 35 377 -93 569 -40 61 -409 429
-1308 1304 -58 57 -228 223 -377 369 -149 146 -274 266 -278 267 -5 2 -8 -61
-9 -140 -1 -158 -12 -334 -29 -446 -3 -20 -7 -52 -9 -71 -9 -67 -18 -135 -22
-155 -2 -11 -11 -58 -20 -105 -8 -47 -22 -112 -31 -145 -8 -33 -16 -67 -18
-75 -38 -180 -132 -475 -232 -730 -46 -117 -227 -543 -269 -635 -26 -58 -106
-240 -192 -440 -150 -348 -331 -846 -345 -945 0 -3 -7 -25 -14 -50 -31 -103
-86 -379 -98 -495 -4 -33 -9 -71 -11 -85 -3 -14 -8 -117 -11 -230 l-5 -205
148 -147 c292 -288 418 -364 608 -369 40 -1 39 -1 -18 -14 -32 -7 -71 -11 -85
-9 -14 1 -46 5 -71 9 -136 16 -257 87 -421 247 -59 57 -141 136 -183 177 -42
41 -81 82 -87 93 -9 17 -5 385 5 433 2 11 7 47 11 80 14 128 21 165 56 320 60
266 96 386 206 678 87 231 302 740 439 1036 140 302 351 863 420 1116 43 159
95 388 108 480 4 23 8 50 10 61 2 12 7 45 11 75 3 30 10 88 15 129 24 196 34
554 15 542 -15 -9 -296 -233 -325 -259 -14 -13 -27 -23 -30 -23 -3 0 -6 -62
-6 -137 0 -127 -10 -325 -18 -369 -2 -11 -7 -50 -11 -89 -7 -72 -13 -121 -21
-159 -2 -11 -6 -34 -9 -51 -3 -16 -7 -41 -10 -55 -3 -14 -7 -41 -10 -60 -4
-19 -11 -55 -16 -80 -6 -25 -12 -52 -14 -60 -44 -208 -186 -643 -298 -915 -64
-156 -151 -361 -185 -436 -386 -846 -571 -1338 -644 -1712 -15 -74 -23 -57
-38 81 -6 55 -13 109 -15 120 -8 42 -18 294 -18 442 0 140 3 219 19 450 4 65
33 285 49 375 82 456 187 849 382 1435 41 124 76 230 77 235 2 6 6 18 9 28 4
9 10 25 13 35 327 944 441 1301 536 1675 l50 198 -222 217 c-274 267 -333 312
-480 357 -72 22 -212 27 -270 9z m1895 -3306 c-24 -209 -90 -448 -181 -654 -7
-17 -18 -42 -24 -55 -17 -42 -1 44 36 191 35 140 165 570 171 570 2 0 1 -24
-2 -52z"/>
<path d="M2849 6843 c-4 -7 -160 -145 -275 -241 -37 -31 -71 -68 -239 -257
-38 -43 -75 -83 -80 -89 -6 -6 -62 -69 -125 -141 -63 -71 -136 -152 -161 -180
-26 -27 -80 -88 -120 -135 -41 -46 -81 -91 -89 -100 -8 -9 -44 -49 -80 -90
-36 -40 -74 -84 -85 -96 -11 -12 -36 -39 -55 -60 -19 -22 -87 -98 -150 -169
-63 -72 -120 -135 -125 -141 -6 -6 -35 -39 -65 -74 -30 -34 -60 -68 -65 -74
-6 -6 -67 -74 -135 -151 -67 -77 -128 -144 -134 -150 -6 -5 -24 -26 -40 -45
-16 -19 -61 -71 -101 -115 -39 -44 -147 -165 -240 -270 -92 -104 -195 -221
-229 -259 -95 -106 -124 -159 -149 -271 -35 -152 14 -353 121 -496 34 -48 201
-212 766 -760 82 -79 186 -180 231 -224 45 -44 194 -188 330 -320 136 -132
294 -285 350 -340 57 -55 208 -202 336 -326 129 -125 262 -254 296 -287 l61
-61 89 64 c174 125 273 199 273 204 0 2 -26 29 -57 59 -32 30 -130 125 -219
211 -263 256 -714 694 -795 772 -42 41 -203 198 -359 349 -155 151 -313 304
-350 340 -559 538 -621 604 -676 725 -86 186 -81 398 11 545 12 19 62 80 111
135 87 98 115 129 151 171 10 12 48 54 84 95 36 41 86 97 110 124 24 28 56 64
71 80 15 17 35 39 45 51 10 12 47 54 83 94 36 40 85 96 110 124 25 27 68 75
95 106 28 31 79 89 115 130 36 40 75 85 88 99 13 14 42 48 65 75 23 26 56 63
72 80 17 18 57 63 90 101 33 37 65 73 70 79 6 6 44 49 85 96 41 47 77 87 80
90 3 3 39 43 80 90 41 47 77 87 80 90 3 3 62 68 130 145 68 77 126 142 129
145 3 3 37 41 76 85 38 44 72 82 75 85 3 3 43 48 89 100 46 52 101 114 124
138 22 23 37 45 35 48 -3 3 -8 2 -9 -3z"/>
</g>
</svg>
