<?xml version="1.0" encoding="UTF-8" standalone="no"?>
<!-- Creator: CorelDRAW -->

<svg
   xmlns:dc="http://purl.org/dc/elements/1.1/"
   xmlns:cc="http://creativecommons.org/ns#"
   xmlns:rdf="http://www.w3.org/1999/02/22-rdf-syntax-ns#"
   xmlns:svg="http://www.w3.org/2000/svg"
   xmlns="http://www.w3.org/2000/svg"
   xmlns:sodipodi="http://sodipodi.sourceforge.net/DTD/sodipodi-0.dtd"
   xmlns:inkscape="http://www.inkscape.org/namespaces/inkscape"
   xml:space="preserve"
   width="512"
   height="512"
   style="clip-rule:evenodd;fill-rule:evenodd;image-rendering:optimizeQuality;shape-rendering:geometricPrecision;text-rendering:geometricPrecision"
   viewBox="0 0 144.49778 144.49777"
   id="svg2"
   version="1.1"
   inkscape:version="0.91 r13725"
   sodipodi:docname="icon.svg"><metadata
     id="metadata28"><rdf:RDF><cc:Work
         rdf:about=""><dc:format>image/svg+xml</dc:format><dc:type
           rdf:resource="http://purl.org/dc/dcmitype/StillImage" /><dc:title></dc:title></cc:Work></rdf:RDF></metadata><sodipodi:namedview
     pagecolor="#ffffff"
     bordercolor="#666666"
     borderopacity="1"
     objecttolerance="10"
     gridtolerance="10"
     guidetolerance="10"
     inkscape:pageopacity="0"
     inkscape:pageshadow="2"
     inkscape:window-width="1920"
     inkscape:window-height="1060"
     id="namedview26"
     showgrid="false"
     fit-margin-top="0"
     fit-margin-left="0"
     fit-margin-right="0"
     fit-margin-bottom="0"
     units="px"
     inkscape:zoom="0.37649721"
     inkscape:cx="-404.24231"
     inkscape:cy="360.1525"
     inkscape:window-x="0"
     inkscape:window-y="0"
     inkscape:window-maximized="1"
     inkscape:current-layer="_55188368" /><defs
     id="defs4"><style
       type="text/css"
       id="style6"><![CDATA[
    .str0 {stroke:white;stroke-width:0.1764}
    .fil4 {fill:#5C5C4F}
    .fil2 {fill:#BEBEB9}
    .fil3 {fill:#D4470F}
    .fil0 {fill:#5C5C4F;fill-rule:nonzero}
    .fil5 {fill:#ADADA7;fill-rule:nonzero}
    .fil1 {fill:#D4470F;fill-rule:nonzero}
   ]]></style></defs><g
     id="Layer_x0020_1"
     transform="matrix(0.25546258,0,0,0.25546258,-9.7769935,112.05183)"><metadata
       id="CorelCorpID_0Corel-Layer" /><g
       id="_55188368"><g
         id="g11"
         transform="matrix(8.555612,0,0,8.555612,-282.2609,-958.88935)"><path
           id="_55192128"
           class="fil2"
           d="m 86.638,77.458 -3.521,2.735 0.3903,1.153 0.4068,1.2662 0.403,1.3599 0.4423,1.5117 0.1653,0.5489 0.1277,0.5282 0.1102,0.5273 0.0926,0.5266 0.0724,0.5068 0.0724,0.5072 0.0373,0.5055 0.0347,0.4866 0.0168,0.4862 0.0145,0.4675 -0.0209,0.4657 -0.0208,0.4658 -0.0384,0.4654 -0.0416,0.4466 -0.0614,0.4269 -0.0765,0.4451 -0.0794,0.4267 -0.0794,0.4267 -0.0968,0.4261 -0.1176,0.4064 -0.235,0.8137 -0.1177,0.4072 -0.1355,0.4066 -0.1384,0.3876 -0.1559,0.3871 -0.2945,0.7756 -0.3155,0.7571 -0.3156,0.7578 -0.6558,1.4793 -0.6219,1.4848 -0.2874,0.7261 -0.2698,0.7275 -0.2498,0.7483 -0.1964,0.752 -0.1073,0.3759 -0.0714,0.3776 -0.0894,0.3771 -0.0539,0.3788 -0.0537,0.3792 -0.0511,0.3984 -0.0181,0.3811 -0.0152,0.4005 -0.0153,0.4005 0.0204,0.4025 0.0205,0.4026 0.0385,0.4037 0.0588,0.4237 0.0744,0.4055 0.0947,0.4256 0.1156,0.446 0.241,0.8348 0.2359,0.7971 0.2304,0.7585 0.2433,0.7212 0.2558,0.6834 0.2506,0.6452 0.2452,0.6065 0.2758,0.5694 3.5918,-2.4687 -0.2786,-0.5742 -0.2479,-0.6113 -0.2535,-0.6503 -0.2586,-0.6888 -0.2461,-0.7268 -0.2335,-0.7646 -0.2388,-0.8031 -0.2441,-0.8414 -0.1172,-0.4494 -0.0963,-0.4289 -0.0756,-0.4085 -0.06,-0.4269 -0.0396,-0.4066 -0.0213,-0.4055 -0.0214,-0.4054 0.0147,-0.4036 0.0147,-0.4033 0.0174,-0.3838 0.0506,-0.4013 0.0534,-0.3817 0.0533,-0.3815 0.0893,-0.3799 0.071,-0.3801 0.1073,-0.3784 0.1963,-0.7568 0.2499,-0.7535 0.27,-0.7324 0.2878,-0.7307 0.6228,-1.4944 0.657,-1.4887 0.3163,-0.7628 0.3159,-0.7617 0.2947,-0.7807 0.1562,-0.3896 0.1385,-0.3902 0.1354,-0.4092 0.1175,-0.4099 0.235,-0.8191 0.1174,-0.409 0.0968,-0.429 0.079,-0.4296 0.079,-0.4295 0.0762,-0.448 0.061,-0.43 0.0407,-0.4497 0.0378,-0.4685 0.0201,-0.4691 0.02,-0.469 -0.0154,-0.4708 -0.018,-0.4895 -0.0358,-0.4903 -0.0384,-0.5089 -0.0738,-0.5111 -0.074,-0.5105 -0.0942,-0.5304 -0.1119,-0.5312 -0.1295,-0.5321 -0.1674,-0.5531 -0.448,-1.5231 -0.408,-1.37 -0.4116,-1.2757 -0.3951,-1.1617 z m -36.1771,-0.2962 -10.995,12.3893 -0.1606,0.2028 -0.1444,0.1845 -0.1397,0.2234 -0.1236,0.2051 -0.1023,0.2255 -0.1027,0.2258 -0.0838,0.2269 -0.0628,0.2472 -0.0629,0.2475 -0.0465,0.229 -0.0419,0.2682 -0.0254,0.2496 -0.0067,0.2509 -0.0069,0.2509 0.0143,0.2712 0.0308,0.2531 0.033,0.2725 0.0496,0.2542 0.0681,0.2552 0.0705,0.2747 0.087,0.2563 0.1056,0.2572 0.1057,0.2573 0.1245,0.2583 0.1221,0.239 0.1432,0.2593 0.1596,0.2408 0.1571,0.2214 0.1783,0.2419 0.1948,0.2233 0.1946,0.2232 0.211,0.2047 10.809,10.4882 10.8,10.4794 3.4599,-2.498 -10.89,-10.575 -10.8995,-10.5839 -0.2127,-0.2066 -0.1962,-0.2252 -0.1964,-0.2253 -0.18,-0.244 -0.1586,-0.2234 -0.1611,-0.2428 -0.1447,-0.2615 -0.1233,-0.2409 -0.1257,-0.2604 -0.1069,-0.2594 -0.1067,-0.2593 -0.088,-0.2582 -0.0714,-0.2769 -0.0692,-0.2572 -0.0501,-0.256 -0.0339,-0.2747 -0.0313,-0.255 -0.0149,-0.2733 0.0064,-0.2528 0.0064,-0.2525 0.0253,-0.2515 0.0415,-0.2701 0.0464,-0.2304 0.0628,-0.2493 0.0628,-0.249 0.0841,-0.2282 0.1029,-0.2273 0.1027,-0.2271 0.1241,-0.2064 0.1402,-0.2249 0.1451,-0.1855 0.1614,-0.204 11.0451,-12.4585 10.7655,-12.1001 0.155,-0.1744 0.1755,-0.1541 -3.3579,2.8826 -0.1746,0.1535 -0.1544,0.1737 -10.7192,12.0355 z m 25.0421,49.073 0.1994,-0.1299 3.5633,-2.4173 -0.2003,0.1305 -0.2007,0.1307 -0.2034,0.1108 -0.2217,0.1104 -0.2092,0.0713 -0.2245,0.0905 -0.2303,0.0509 -0.2304,0.0511 -0.2511,0.0305 -0.2333,0.0312 -0.2542,0.0109 -0.2388,-0.008 -0.2387,-0.008 -0.2599,-0.0289 -0.2445,-0.0481 -0.2444,-0.048 -0.2654,-0.0687 -0.2473,-0.068 -0.2528,-0.1078 -0.2317,-0.0871 -0.2554,-0.1275 -0.237,-0.1268 -0.24,-0.147 -0.2398,-0.1467 -0.2427,-0.1668 -0.2269,-0.1856 -0.2268,-0.186 -0.2113,-0.2051 -3.2719,-3.16 -0.0294,-0.7697 -0.0082,-0.7488 0.0288,-0.7465 0.0284,-0.7461 0.0473,-0.7446 0.0679,-0.7237 0.0839,-0.7417 0.1047,-0.7208 0.1232,-0.7193 0.144,-0.698 0.1413,-0.7173 0.178,-0.7149 0.1805,-0.6944 0.1776,-0.7136 0.2164,-0.6914 0.2166,-0.6908 0.2165,-0.6901 0.2343,-0.6886 0.2524,-0.6869 0.2521,-0.6863 0.2701,-0.6846 0.2672,-0.7034 0.2695,-0.6832 0.2875,-0.6814 0.574,-1.3608 0.591,-1.3568 1.2242,-2.7594 0.6025,-1.366 0.6136,-1.4003 0.5942,-1.3981 0.5721,-1.415 0.2946,-0.7057 0.2736,-0.7252 0.2554,-0.7254 0.2729,-0.7236 0.4887,-1.4664 0.2336,-0.7421 0.2333,-0.7415 0.2152,-0.7416 0.2123,-0.7597 0.194,-0.76 0.1733,-0.7793 0.1734,-0.7785 0.1551,-0.7786 0.1346,-0.7979 0.1344,-0.7972 0.096,-0.8172 0.0959,-0.8166 0.0777,-0.817 0.0754,-0.8349 0.0397,-0.8362 0.0191,-0.8558 -0.0011,-0.8748 -0.0164,-0.8563 -3.4825,2.7769 0.0147,0.8504 -4e-4,0.8687 -0.0207,0.8497 -0.0409,0.8306 -0.0765,0.8294 -0.079,0.8114 -0.0969,0.811 -0.097,0.8118 -0.1349,0.7919 -0.1354,0.7925 -0.1558,0.7734 -0.1735,0.7735 -0.1737,0.774 -0.1944,0.7552 -0.2123,0.7546 -0.2154,0.7369 -0.2331,0.7367 -0.2338,0.7372 -0.4882,1.4571 -0.2727,0.7189 -0.2551,0.7207 -0.2732,0.7205 -0.2942,0.7013 -0.5713,1.4059 -0.5929,1.3891 -0.6127,1.3915 -0.6011,1.3572 -1.2216,2.7417 -0.5897,1.348 -0.573,1.3519 -0.2869,0.6771 -0.2692,0.6786 -0.2666,0.6989 -0.2699,0.6801 -0.2517,0.6815 -0.2522,0.6826 -0.2342,0.6838 -0.2161,0.6855 -0.2165,0.6861 -0.2163,0.6869 -0.1778,0.7085 -0.1806,0.6898 -0.1781,0.7098 -0.1417,0.7124 -0.1443,0.6931 -0.1239,0.7142 -0.1054,0.7155 -0.0846,0.7365 -0.069,0.7185 -0.0482,0.7391 -0.0297,0.7406 -0.0299,0.7411 0.0067,0.7432 0.0278,0.764 3.2451,3.1317 0.2095,0.2032 0.2249,0.1841 0.2253,0.1842 0.2406,0.165 0.2381,0.1452 0.2379,0.1455 0.2355,0.1256 0.2535,0.1261 0.2302,0.0862 0.2506,0.1065 0.2457,0.067 0.2636,0.0678 0.2428,0.0472 0.2427,0.0475 0.2582,0.0282 0.2373,0.008 0.2372,0.008 0.2528,-0.0111 0.2317,-0.0314 0.2497,-0.0306 0.2289,-0.0511 0.229,-0.0508 0.2233,-0.0903 0.2078,-0.0711 0.2205,-0.1098 0.2023,-0.1105 0.1996,-0.13 z"
           inkscape:connector-curvature="0"
           style="fill:#bebeb9" /><path
           id="_55192056"
           class="fil3"
           d="m 43.8061,86.6378 c -1.9121,2.416 -1.1438,5.7164 0.959,7.7589 l 21.7897,21.1589 c -0.7242,-4.0992 -0.7654,-8.147 -0.3593,-12.2811 1.5503,-12.774 7.607,-24.3461 10.4781,-36.8078 L 72.522,62.4038 C 70.5453,60.7617 67.8685,60.0624 65.7716,61.9047 58.4455,70.1449 51.1208,78.3869 43.8061,86.6378 Z"
           inkscape:connector-curvature="0"
           style="fill:#d4470f" /><path
           id="_55191984"
           class="fil4"
           d="m 81.0523,122.839 6.1975,-7.6107 c -3.1542,-5.0342 -4.8389,-11.1591 -3.7326,-17.0608 1.3829,-6.261 4.5767,-12.1168 4.3996,-18.6449 -0.0538,-0.78 -0.1513,-1.5356 -0.2626,-2.3093 l -4.7897,-4.6719 c 0.1239,6.485 -1.3385,12.7614 -3.8306,18.7315 -3.7077,9.1693 -8.9116,17.937 -8.5223,28.1425 1.8537,1.7905 3.2912,3.6462 5.6363,4.6464 1.8045,0.4962 3.6516,0.3155 4.9044,-1.2228 z"
           inkscape:connector-curvature="0"
           style="fill:#5c5c4f" /><path
           id="_55191912"
           class="fil3"
           d="m 87.4789,114.947 14.422,-17.7116 c 1.5591,-2.4698 0.6178,-5.3277 -1.265,-7.3173 L 87.7183,77.292 c 1.4862,4.3696 2.9543,8.5503 2.1652,13.1927 -1.1518,6.2619 -6.0007,11.7687 -4.5229,18.3523 0.5409,2.0734 1.181,4.1782 2.1183,6.11 z"
           inkscape:connector-curvature="0"
           style="fill:#d4470f" /></g></g></g></svg>