<?xml version="1.0" encoding="UTF-8" standalone="no"?>
<!-- Creator: CorelDRAW -->

<svg
   xmlns:dc="http://purl.org/dc/elements/1.1/"
   xmlns:cc="http://creativecommons.org/ns#"
   xmlns:rdf="http://www.w3.org/1999/02/22-rdf-syntax-ns#"
   xmlns:svg="http://www.w3.org/2000/svg"
   xmlns="http://www.w3.org/2000/svg"
   xmlns:sodipodi="http://sodipodi.sourceforge.net/DTD/sodipodi-0.dtd"
   xmlns:inkscape="http://www.inkscape.org/namespaces/inkscape"
   xml:space="preserve"
   width="200"
   height="80"
   style="clip-rule:evenodd;fill-rule:evenodd;image-rendering:optimizeQuality;shape-rendering:geometricPrecision;text-rendering:geometricPrecision"
   viewBox="0 0 56.444444 22.577778"
   id="svg2"
   version="1.1"
   inkscape:version="0.91 r13725"
   sodipodi:docname="logotipo.svg"><metadata
     id="metadata28"><rdf:RDF><cc:Work
         rdf:about=""><dc:format>image/svg+xml</dc:format><dc:type
           rdf:resource="http://purl.org/dc/dcmitype/StillImage" /><dc:title>Estores Margarido</dc:title></cc:Work></rdf:RDF></metadata><sodipodi:namedview
     pagecolor="#ffffff"
     bordercolor="#666666"
     borderopacity="1"
     objecttolerance="10"
     gridtolerance="10"
     guidetolerance="10"
     inkscape:pageopacity="0"
     inkscape:pageshadow="2"
     inkscape:window-width="1920"
     inkscape:window-height="1060"
     id="namedview26"
     showgrid="false"
     fit-margin-top="0"
     fit-margin-left="0"
     fit-margin-right="0"
     fit-margin-bottom="0"
     units="px"
     inkscape:zoom="1.5059888"
     inkscape:cx="103.3326"
     inkscape:cy="36.60431"
     inkscape:window-x="0"
     inkscape:window-y="0"
     inkscape:window-maximized="1"
     inkscape:current-layer="svg2" /><defs
     id="defs4"><style
       type="text/css"
       id="style6"><![CDATA[
    .str0 {stroke:white;stroke-width:0.1764}
    .fil4 {fill:#5C5C4F}
    .fil2 {fill:#BEBEB9}
    .fil3 {fill:#D4470F}
    .fil0 {fill:#5C5C4F;fill-rule:nonzero}
    .fil5 {fill:#ADADA7;fill-rule:nonzero}
    .fil1 {fill:#D4470F;fill-rule:nonzero}
   ]]></style></defs><g
     id="Layer_x0020_1"
     transform="matrix(0.25546258,0,0,0.25546258,-9.7252769,-15.534659)"><metadata
       id="CorelCorpID_0Corel-Layer" /><g
       id="_55188368"><g
         id="g11"><g
           id="g13"><path
             id="_55192368"
             class="fil0"
             d="m 170.624,93.7327 c -5.0405,0.0127 -7.5607,2.1907 -7.5607,6.5334 0,4.3555 2.5329,6.5334 7.5996,6.5334 5.0793,-0.0129 7.6193,-2.1971 7.6193,-6.5528 0,-4.3427 -2.5529,-6.514 -7.6582,-6.514 z m -42.0504,2.1907 0,-2.1715 -15.2189,0 0,2.1715 15.2189,0 z m 0,8.7049 -15.2189,0 0,2.1712 15.2189,0 0,-2.1712 z m 5.3118,-8.7243 11.6133,0 0,-2.1521 -11.4191,0 c -2.5464,0 -3.8195,1.0859 -3.8195,3.2571 l 0,1.1051 c 0.0259,2.1456 1.2993,3.2182 3.8195,3.2182 l 0,-2.1712 -0.1942,0 c -0.9561,0 -1.4344,-0.5429 -1.4344,-1.6286 0,-1.0856 0.4783,-1.6285 1.4344,-1.6285 z m 7.9877,8.7243 -11.613,0 0,2.1518 11.4579,0 c 2.5203,0 3.7807,-1.0921 3.7807,-3.2765 l 0,-1.0854 c 0,-2.1456 -1.2604,-3.2183 -3.7807,-3.2183 l 0,2.1713 0.1551,0 c 0.9564,0 1.4344,0.5362 1.4344,1.6089 0,1.0988 -0.478,1.6482 -1.4344,1.6482 z m 5.3316,-10.8764 15.2188,0 0,2.1715 -6.5142,0 0,10.8567 -2.1521,0 0,-10.8567 -6.5525,0 0,-2.1715 z m 44.3768,2.1521 -11.6128,0 0,-2.1521 11.4579,0 c 2.5203,0 3.7804,1.0859 3.7804,3.2571 l 0,1.1051 c 0,2.1456 -1.2601,3.2182 -3.7804,3.2182 l -6.9795,0 10.624,5.4478 -4.575,0 -10.5274,-5.4478 0,-2.1712 11.6128,0 c 0.9566,0 1.4346,-0.5429 1.4346,-1.6286 0,-1.0856 -0.478,-1.6285 -1.4346,-1.6285 z m 20.5506,0.0194 0,-2.1715 -15.2191,0 0,2.1715 15.2191,0 z m 0,8.7049 -15.2191,0 0,2.1712 15.2191,0 0,-2.1712 z m 5.3118,-8.7243 11.613,0 0,-2.1521 -11.419,0 c -2.5464,0 -3.8192,1.0859 -3.8192,3.2571 l 0,1.1051 c 0.0256,2.1456 1.2989,3.2182 3.8192,3.2182 l 0,-2.1712 -0.194,0 c -0.9564,0 -1.4346,-0.5429 -1.4346,-1.6286 0,-1.0856 0.4782,-1.6285 1.4346,-1.6285 z m 7.9875,8.7243 -11.6127,0 0,2.1518 11.4576,0 c 2.5205,0 3.7806,-1.0921 3.7806,-3.2765 l 0,-1.0854 c 0,-2.1456 -1.2601,-3.2183 -3.7806,-3.2183 l 0,2.1713 0.1551,0 c 0.9567,0 1.4346,0.5362 1.4346,1.6089 0,1.0988 -0.4779,1.6482 -1.4346,1.6482 z m -49.3402,-4.3816 c 0,2.9081 -1.8095,4.3622 -5.4283,4.3622 -3.6318,0 -5.4478,-1.4541 -5.4478,-4.3622 0,-2.8951 1.816,-4.3427 5.4478,-4.3427 3.6188,0 5.4283,1.4476 5.4283,4.3427 z"
             inkscape:connector-curvature="0"
             style="fill:#5c5c4f;fill-rule:nonzero" /><polygon
             id="_55192296"
             class="fil1"
             points="212.132,101.371 212.132,99.1999 196.913,99.1999 196.913,101.371 "
             style="fill:#d4470f;fill-rule:nonzero" /><polygon
             id="_55192224"
             class="fil1"
             points="128.573,101.371 128.573,99.1999 113.354,99.1999 113.354,101.371 "
             style="fill:#d4470f;fill-rule:nonzero" /></g><path
           id="_55192128"
           class="fil2"
           d="m 86.638,77.458 -3.521,2.735 0.3903,1.153 0.4068,1.2662 0.403,1.3599 0.4423,1.5117 0.1653,0.5489 0.1277,0.5282 0.1102,0.5273 0.0926,0.5266 0.0724,0.5068 0.0724,0.5072 0.0373,0.5055 0.0347,0.4866 0.0168,0.4862 0.0145,0.4675 -0.0209,0.4657 -0.0208,0.4658 -0.0384,0.4654 -0.0416,0.4466 -0.0614,0.4269 -0.0765,0.4451 -0.0794,0.4267 -0.0794,0.4267 -0.0968,0.4261 -0.1176,0.4064 -0.235,0.8137 -0.1177,0.4072 -0.1355,0.4066 -0.1384,0.3876 -0.1559,0.3871 -0.2945,0.7756 -0.3155,0.7571 -0.3156,0.7578 -0.6558,1.4793 -0.6219,1.4848 -0.2874,0.7261 -0.2698,0.7275 -0.2498,0.7483 -0.1964,0.752 -0.1073,0.3759 -0.0714,0.3776 -0.0894,0.3771 -0.0539,0.3788 -0.0537,0.3792 -0.0511,0.3984 -0.0181,0.3811 -0.0152,0.4005 -0.0153,0.4005 0.0204,0.4025 0.0205,0.4026 0.0385,0.4037 0.0588,0.4237 0.0744,0.4055 0.0947,0.4256 0.1156,0.446 0.241,0.8348 0.2359,0.7971 0.2304,0.7585 0.2433,0.7212 0.2558,0.6834 0.2506,0.6452 0.2452,0.6065 0.2758,0.5694 3.5918,-2.4687 -0.2786,-0.5742 -0.2479,-0.6113 -0.2535,-0.6503 -0.2586,-0.6888 -0.2461,-0.7268 -0.2335,-0.7646 -0.2388,-0.8031 -0.2441,-0.8414 -0.1172,-0.4494 -0.0963,-0.4289 -0.0756,-0.4085 -0.06,-0.4269 -0.0396,-0.4066 -0.0213,-0.4055 -0.0214,-0.4054 0.0147,-0.4036 0.0147,-0.4033 0.0174,-0.3838 0.0506,-0.4013 0.0534,-0.3817 0.0533,-0.3815 0.0893,-0.3799 0.071,-0.3801 0.1073,-0.3784 0.1963,-0.7568 0.2499,-0.7535 0.27,-0.7324 0.2878,-0.7307 0.6228,-1.4944 0.657,-1.4887 0.3163,-0.7628 0.3159,-0.7617 0.2947,-0.7807 0.1562,-0.3896 0.1385,-0.3902 0.1354,-0.4092 0.1175,-0.4099 0.235,-0.8191 0.1174,-0.409 0.0968,-0.429 0.079,-0.4296 0.079,-0.4295 0.0762,-0.448 0.061,-0.43 0.0407,-0.4497 0.0378,-0.4685 0.0201,-0.4691 0.02,-0.469 -0.0154,-0.4708 -0.018,-0.4895 -0.0358,-0.4903 -0.0384,-0.5089 -0.0738,-0.5111 -0.074,-0.5105 -0.0942,-0.5304 -0.1119,-0.5312 -0.1295,-0.5321 -0.1674,-0.5531 -0.448,-1.5231 -0.408,-1.37 -0.4116,-1.2757 -0.3951,-1.1617 z m -36.1771,-0.2962 -10.995,12.3893 -0.1606,0.2028 -0.1444,0.1845 -0.1397,0.2234 -0.1236,0.2051 -0.1023,0.2255 -0.1027,0.2258 -0.0838,0.2269 -0.0628,0.2472 -0.0629,0.2475 -0.0465,0.229 -0.0419,0.2682 -0.0254,0.2496 -0.0067,0.2509 -0.0069,0.2509 0.0143,0.2712 0.0308,0.2531 0.033,0.2725 0.0496,0.2542 0.0681,0.2552 0.0705,0.2747 0.087,0.2563 0.1056,0.2572 0.1057,0.2573 0.1245,0.2583 0.1221,0.239 0.1432,0.2593 0.1596,0.2408 0.1571,0.2214 0.1783,0.2419 0.1948,0.2233 0.1946,0.2232 0.211,0.2047 10.809,10.4882 10.8,10.4794 3.4599,-2.498 -10.89,-10.575 -10.8995,-10.5839 -0.2127,-0.2066 -0.1962,-0.2252 -0.1964,-0.2253 -0.18,-0.244 -0.1586,-0.2234 -0.1611,-0.2428 -0.1447,-0.2615 -0.1233,-0.2409 -0.1257,-0.2604 -0.1069,-0.2594 -0.1067,-0.2593 -0.088,-0.2582 -0.0714,-0.2769 -0.0692,-0.2572 -0.0501,-0.256 -0.0339,-0.2747 -0.0313,-0.255 -0.0149,-0.2733 0.0064,-0.2528 0.0064,-0.2525 0.0253,-0.2515 0.0415,-0.2701 0.0464,-0.2304 0.0628,-0.2493 0.0628,-0.249 0.0841,-0.2282 0.1029,-0.2273 0.1027,-0.2271 0.1241,-0.2064 0.1402,-0.2249 0.1451,-0.1855 0.1614,-0.204 11.0451,-12.4585 10.7655,-12.1001 0.155,-0.1744 0.1755,-0.1541 -3.3579,2.8826 -0.1746,0.1535 -0.1544,0.1737 -10.7192,12.0355 z m 25.0421,49.073 0.1994,-0.1299 3.5633,-2.4173 -0.2003,0.1305 -0.2007,0.1307 -0.2034,0.1108 -0.2217,0.1104 -0.2092,0.0713 -0.2245,0.0905 -0.2303,0.0509 -0.2304,0.0511 -0.2511,0.0305 -0.2333,0.0312 -0.2542,0.0109 -0.2388,-0.008 -0.2387,-0.008 -0.2599,-0.0289 -0.2445,-0.0481 -0.2444,-0.048 -0.2654,-0.0687 -0.2473,-0.068 -0.2528,-0.1078 -0.2317,-0.0871 -0.2554,-0.1275 -0.237,-0.1268 -0.24,-0.147 -0.2398,-0.1467 -0.2427,-0.1668 -0.2269,-0.1856 -0.2268,-0.186 -0.2113,-0.2051 -3.2719,-3.16 -0.0294,-0.7697 -0.0082,-0.7488 0.0288,-0.7465 0.0284,-0.7461 0.0473,-0.7446 0.0679,-0.7237 0.0839,-0.7417 0.1047,-0.7208 0.1232,-0.7193 0.144,-0.698 0.1413,-0.7173 0.178,-0.7149 0.1805,-0.6944 0.1776,-0.7136 0.2164,-0.6914 0.2166,-0.6908 0.2165,-0.6901 0.2343,-0.6886 0.2524,-0.6869 0.2521,-0.6863 0.2701,-0.6846 0.2672,-0.7034 0.2695,-0.6832 0.2875,-0.6814 0.574,-1.3608 0.591,-1.3568 1.2242,-2.7594 0.6025,-1.366 0.6136,-1.4003 0.5942,-1.3981 0.5721,-1.415 0.2946,-0.7057 0.2736,-0.7252 0.2554,-0.7254 0.2729,-0.7236 0.4887,-1.4664 0.2336,-0.7421 0.2333,-0.7415 0.2152,-0.7416 0.2123,-0.7597 0.194,-0.76 0.1733,-0.7793 0.1734,-0.7785 0.1551,-0.7786 0.1346,-0.7979 0.1344,-0.7972 0.096,-0.8172 0.0959,-0.8166 0.0777,-0.817 0.0754,-0.8349 0.0397,-0.8362 0.0191,-0.8558 -0.0011,-0.8748 -0.0164,-0.8563 -3.4825,2.7769 0.0147,0.8504 -4e-4,0.8687 -0.0207,0.8497 -0.0409,0.8306 -0.0765,0.8294 -0.079,0.8114 -0.0969,0.811 -0.097,0.8118 -0.1349,0.7919 -0.1354,0.7925 -0.1558,0.7734 -0.1735,0.7735 -0.1737,0.774 -0.1944,0.7552 -0.2123,0.7546 -0.2154,0.7369 -0.2331,0.7367 -0.2338,0.7372 -0.4882,1.4571 -0.2727,0.7189 -0.2551,0.7207 -0.2732,0.7205 -0.2942,0.7013 -0.5713,1.4059 -0.5929,1.3891 -0.6127,1.3915 -0.6011,1.3572 -1.2216,2.7417 -0.5897,1.348 -0.573,1.3519 -0.2869,0.6771 -0.2692,0.6786 -0.2666,0.6989 -0.2699,0.6801 -0.2517,0.6815 -0.2522,0.6826 -0.2342,0.6838 -0.2161,0.6855 -0.2165,0.6861 -0.2163,0.6869 -0.1778,0.7085 -0.1806,0.6898 -0.1781,0.7098 -0.1417,0.7124 -0.1443,0.6931 -0.1239,0.7142 -0.1054,0.7155 -0.0846,0.7365 -0.069,0.7185 -0.0482,0.7391 -0.0297,0.7406 -0.0299,0.7411 0.0067,0.7432 0.0278,0.764 3.2451,3.1317 0.2095,0.2032 0.2249,0.1841 0.2253,0.1842 0.2406,0.165 0.2381,0.1452 0.2379,0.1455 0.2355,0.1256 0.2535,0.1261 0.2302,0.0862 0.2506,0.1065 0.2457,0.067 0.2636,0.0678 0.2428,0.0472 0.2427,0.0475 0.2582,0.0282 0.2373,0.008 0.2372,0.008 0.2528,-0.0111 0.2317,-0.0314 0.2497,-0.0306 0.2289,-0.0511 0.229,-0.0508 0.2233,-0.0903 0.2078,-0.0711 0.2205,-0.1098 0.2023,-0.1105 0.1996,-0.13 z"
           inkscape:connector-curvature="0"
           style="fill:#bebeb9" /><path
           id="_55192056"
           class="fil3"
           d="m 43.8061,86.6378 c -1.9121,2.416 -1.1438,5.7164 0.959,7.7589 l 21.7897,21.1589 c -0.7242,-4.0992 -0.7654,-8.147 -0.3593,-12.2811 1.5503,-12.774 7.607,-24.3461 10.4781,-36.8078 L 72.522,62.4038 C 70.5453,60.7617 67.8685,60.0624 65.7716,61.9047 58.4455,70.1449 51.1208,78.3869 43.8061,86.6378 Z"
           inkscape:connector-curvature="0"
           style="fill:#d4470f" /><path
           id="_55191984"
           class="fil4"
           d="m 81.0523,122.839 6.1975,-7.6107 c -3.1542,-5.0342 -4.8389,-11.1591 -3.7326,-17.0608 1.3829,-6.261 4.5767,-12.1168 4.3996,-18.6449 -0.0538,-0.78 -0.1513,-1.5356 -0.2626,-2.3093 l -4.7897,-4.6719 c 0.1239,6.485 -1.3385,12.7614 -3.8306,18.7315 -3.7077,9.1693 -8.9116,17.937 -8.5223,28.1425 1.8537,1.7905 3.2912,3.6462 5.6363,4.6464 1.8045,0.4962 3.6516,0.3155 4.9044,-1.2228 z"
           inkscape:connector-curvature="0"
           style="fill:#5c5c4f" /><path
           id="_55191912"
           class="fil3"
           d="m 87.4789,114.947 14.422,-17.7116 c 1.5591,-2.4698 0.6178,-5.3277 -1.265,-7.3173 L 87.7183,77.292 c 1.4862,4.3696 2.9543,8.5503 2.1652,13.1927 -1.1518,6.2619 -6.0007,11.7687 -4.5229,18.3523 0.5409,2.0734 1.181,4.1782 2.1183,6.11 z"
           inkscape:connector-curvature="0"
           style="fill:#d4470f" /></g><g
         id="g22"><path
           id="_55188488"
           class="fil5"
           d="m 95.621,147.509 0,-9.4307 4.565,0 0,0.8884 -3.499,0 0,3.1575 3.3349,0 0,0.8879 -3.3349,0 0,3.6084 3.6218,0 0,0.8885 -4.6878,0 z m 9.9565,-4.0047 0.5464,0.3281 c 0.5651,0.3373 0.9024,0.556 1.0117,0.6558 0.3373,0.319 0.5057,0.7201 0.5057,1.2031 0,1.312 -0.8021,1.9678 -2.4034,1.9678 -0.6059,0 -1.1959,-0.0911 -1.7654,-0.2729 l 0,-0.8477 c 0.6764,0.2279 1.2324,0.3416 1.6675,0.3416 1.0477,0 1.572,-0.3507 1.572,-1.0521 0,-0.2825 -0.1458,-0.5377 -0.4375,-0.7656 -0.0729,-0.0455 -0.319,-0.1823 -0.7382,-0.4101 l -0.5877,-0.3142 c -0.4917,-0.2644 -0.8155,-0.4649 -0.9704,-0.6016 -0.3368,-0.3094 -0.5057,-0.697 -0.5057,-1.1614 0,-0.5378 0.1938,-0.9589 0.581,-1.2645 0.3871,-0.3051 0.9364,-0.4577 1.6468,-0.4577 0.3828,0 0.8933,0.0729 1.5308,0.2188 l 0,0.8611 c -0.5373,-0.2006 -1.0434,-0.3008 -1.5169,-0.3008 -0.3919,0 -0.7085,0.082 -0.9498,0.2461 -0.2418,0.164 -0.3622,0.3641 -0.3622,0.6011 0,0.2278 0.1319,0.4283 0.3963,0.6015 0.2643,0.1367 0.5238,0.2778 0.779,0.4236 z m 8.7404,3.253 0,0.8337 c -0.3008,0.0456 -0.5742,0.0681 -0.8203,0.0681 -0.6466,0 -1.1091,-0.1319 -1.3873,-0.3962 -0.2778,-0.2643 -0.4169,-0.6923 -0.4169,-1.2847 l 0,-4.1961 -1.0659,0 0,-0.779 1.0659,0 0,-1.5169 0.9297,-0.5876 0,2.1045 1.7495,0 0,0.779 -1.7495,0 0,4.0047 c 0,0.7292 0.3555,1.0933 1.0659,1.0933 0.1732,0 0.3828,-0.0408 0.6289,-0.1228 z m 5.8156,0.9018 c -0.9115,0 -1.5902,-0.3276 -2.0364,-0.9839 -0.4101,-0.5833 -0.615,-1.3849 -0.615,-2.4053 0,-1.0208 0.2049,-1.8272 0.615,-2.4192 0.4553,-0.6653 1.1341,-0.9978 2.0364,-0.9978 0.911,0 1.5989,0.3325 2.0637,0.9978 0.4102,0.592 0.615,1.3984 0.615,2.4192 0,1.0204 -0.2048,1.822 -0.615,2.4053 -0.4648,0.6563 -1.1527,0.9839 -2.0637,0.9839 z m -1.5855,-3.4031 c 0,1.7495 0.5287,2.6241 1.5855,2.6241 1.075,0 1.6128,-0.8746 1.6128,-2.6241 0,-1.7495 -0.5378,-2.624 -1.6128,-2.624 -1.0568,0 -1.5855,0.8745 -1.5855,2.624 z m 8.125,3.253 0,-6.5059 0.9297,0 0,1.2573 0,0 c 0.4144,-0.9383 1.1479,-1.4075 2.2004,-1.4075 l 0,0.9978 c -0.72,0 -1.2664,0.2687 -1.6401,0.8064 -0.3737,0.5373 -0.5603,1.2574 -0.5603,2.1592 l 0,2.6927 -0.9297,0 z m 10.6813,-0.8064 0,0.7656 c -0.4102,0.1271 -0.9067,0.1909 -1.49,0.1909 -1.0203,0 -1.8037,-0.3051 -2.3506,-0.9153 -0.5469,-0.6107 -0.8198,-1.5125 -0.8198,-2.7065 0,-1.0022 0.2115,-1.7836 0.6351,-2.3439 0.4241,-0.5603 1.0592,-0.8405 1.9069,-0.8405 0.7378,0 1.3077,0.2322 1.7082,0.6971 0.3737,0.4466 0.5604,1.0385 0.5604,1.7768 l 0,0.3142 -3.7447,0 0,0.3828 c 0,0.674 0.1501,1.2708 0.4509,1.7903 0.4102,0.711 1.0295,1.066 1.8589,1.066 0.3373,0 0.7652,-0.059 1.2847,-0.1775 z m -3.5264,-3.8406 2.6106,0 c 0,-0.2826 -0.0911,-0.5421 -0.2734,-0.7791 -0.2279,-0.3008 -0.5512,-0.4509 -0.9705,-0.4509 -0.756,0 -1.2117,0.4101 -1.3667,1.23 z m 9.0685,0.6423 0.5464,0.3281 c 0.5651,0.3373 0.9024,0.556 1.0118,0.6558 0.3372,0.319 0.5056,0.7201 0.5056,1.2031 0,1.312 -0.8021,1.9678 -2.4034,1.9678 -0.6059,0 -1.1959,-0.0911 -1.7653,-0.2729 l 0,-0.8477 c 0.6764,0.2279 1.2323,0.3416 1.6674,0.3416 1.0477,0 1.5721,-0.3507 1.5721,-1.0521 0,-0.2825 -0.1459,-0.5377 -0.4375,-0.7656 -0.0729,-0.0455 -0.319,-0.1823 -0.7383,-0.4101 l -0.5877,-0.3142 c -0.4917,-0.2644 -0.8155,-0.4649 -0.9704,-0.6016 -0.3368,-0.3094 -0.5056,-0.697 -0.5056,-1.1614 0,-0.5378 0.1938,-0.9589 0.5809,-1.2645 0.3871,-0.3051 0.9364,-0.4577 1.6469,-0.4577 0.3828,0 0.8932,0.0729 1.5307,0.2188 l 0,0.8611 c -0.5373,-0.2006 -1.0434,-0.3008 -1.5168,-0.3008 -0.392,0 -0.7086,0.082 -0.9499,0.2461 -0.2417,0.164 -0.3622,0.3641 -0.3622,0.6011 0,0.2278 0.132,0.4283 0.3963,0.6015 0.2643,0.1367 0.5238,0.2778 0.779,0.4236 z m 13.4282,3.1983 0,0.7656 c -0.4101,0.1271 -0.9066,0.1909 -1.49,0.1909 -1.0203,0 -1.8037,-0.3051 -2.3506,-0.9153 -0.5469,-0.6107 -0.8198,-1.5125 -0.8198,-2.7065 0,-1.0022 0.2115,-1.7836 0.6351,-2.3439 0.4241,-0.5603 1.0592,-0.8405 1.9069,-0.8405 0.7378,0 1.3077,0.2322 1.7083,0.6971 0.3737,0.4466 0.5603,1.0385 0.5603,1.7768 l 0,0.3142 -3.7447,0 0,0.3828 c 0,0.674 0.1502,1.2708 0.4509,1.7903 0.4102,0.711 1.0295,1.066 1.8589,1.066 0.3373,0 0.7652,-0.059 1.2847,-0.1775 z m -3.5264,-3.8406 2.6106,0 c 0,-0.2826 -0.0911,-0.5421 -0.2734,-0.7791 -0.2279,-0.3008 -0.5512,-0.4509 -0.9705,-0.4509 -0.756,0 -1.2117,0.4101 -1.3667,1.23 z m 10.0932,4.647 3.0069,-9.4307 1.2986,0 3.0481,9.4307 -1.0664,0 -0.9431,-2.9114 -3.3619,0 -0.9158,2.9114 -1.0664,0 z m 3.6497,-8.4603 -1.3806,4.6609 2.7881,0 -1.3806,-4.6609 -0.0269,0 z m 7.1569,8.4603 0,-9.4307 0.9292,0 0,9.4307 -0.9292,0 z m 9.0272,0 0,-1.5035 0,0 c -0.3396,1.1024 -1.0184,1.6536 -2.0388,1.6536 -0.5401,0 -0.9637,-0.2 -1.2664,-0.6011 -0.2758,-0.3645 -0.4126,-0.8337 -0.4126,-1.4079 l 0,-4.647 0.9293,0 0,3.6084 c 0,0.7287 0.0412,1.2209 0.1232,1.4761 0.1276,0.4284 0.4054,0.6423 0.8338,0.6423 0.5646,0 1.0251,-0.3598 1.3801,-1.0798 0.3008,-0.6102 0.4514,-1.2665 0.4514,-1.9678 l 0,-2.6792 0.9292,0 0,6.5059 -0.9292,0 z m 5.3095,0 0,-6.5059 0.9292,0 0,1.5034 0,0 c 0.3142,-1.1024 0.9292,-1.6536 1.8474,-1.6536 1.0276,0 1.5807,0.4965 1.6651,1.4895 l 0,0 c 0.1185,-0.3641 0.3008,-0.674 0.5469,-0.9292 0.3554,-0.3737 0.7881,-0.5603 1.2981,-0.5603 0.5286,0 0.9431,0.2005 1.2439,0.6011 0.2825,0.3646 0.4236,0.8338 0.4236,1.408 l 0,4.647 -0.9292,0 0,-3.6084 c 0,-0.7287 -0.0413,-1.2252 -0.1233,-1.4896 -0.1272,-0.4192 -0.4054,-0.6289 -0.8333,-0.6289 -0.5013,0 -0.9067,0.3646 -1.2166,1.0938 -0.2734,0.6102 -0.4101,1.2616 -0.4101,1.9543 l 0,2.6788 -0.9292,0 0,-3.6084 c 0,-0.7287 -0.0413,-1.2209 -0.1233,-1.4761 -0.1276,-0.4279 -0.4054,-0.6424 -0.8337,-0.6424 -0.4918,0 -0.8976,0.3603 -1.2161,1.0799 -0.2735,0.6198 -0.4102,1.2755 -0.4102,1.9682 l 0,2.6788 -0.9292,0 z m 12.3872,0 0,-6.5059 0.9292,0 0,6.5059 -0.9292,0 z m 0.0273,-7.64 0.5738,-1.8315 1.2031,0 -0.9158,1.8315 -0.8611,0 z m 5.323,7.64 0,-6.5059 0.9296,0 0,1.5034 0,0 c 0.3666,-1.1024 1.0501,-1.6536 2.0523,-1.6536 0.5305,0 0.9498,0.2005 1.253,0.6011 0.2845,0.3646 0.426,0.8338 0.426,1.408 l 0,4.647 -0.9297,0 0,-3.6084 c 0,-0.7287 -0.0408,-1.2209 -0.1228,-1.4761 -0.1276,-0.4279 -0.4054,-0.6424 -0.8338,-0.6424 -0.5651,0 -1.0251,0.3603 -1.3806,1.0799 -0.3094,0.6198 -0.4644,1.2755 -0.4644,1.9682 l 0,2.6788 -0.9296,0 z m 9.0704,0 0,-6.5059 0.9292,0 0,6.5059 -0.9292,0 z m -0.1501,-8.2008 0,-1.2299 1.2299,0 0,1.2299 -1.2299,0 z m 7.6989,8.3509 c -0.9115,0 -1.5903,-0.3276 -2.0364,-0.9839 -0.4101,-0.5833 -0.615,-1.3849 -0.615,-2.4053 0,-1.0208 0.2049,-1.8272 0.615,-2.4192 0.4553,-0.6653 1.1341,-0.9978 2.0364,-0.9978 0.911,0 1.5989,0.3325 2.0637,0.9978 0.4102,0.592 0.615,1.3984 0.615,2.4192 0,1.0204 -0.2048,1.822 -0.615,2.4053 -0.4648,0.6563 -1.1527,0.9839 -2.0637,0.9839 z m -1.5855,-3.4031 c 0,1.7495 0.5287,2.6241 1.5855,2.6241 1.075,0 1.6128,-0.8746 1.6128,-2.6241 0,-1.7495 -0.5378,-2.624 -1.6128,-2.624 -1.0568,0 -1.5855,0.8745 -1.5855,2.624 z m 7.7834,4.9339 0.1775,-3.0476 1.2166,0 -0.4783,3.0476 -0.9158,0 z m 8.8906,-1.6809 0,-9.4307 1.0659,0 0,8.5422 3.3757,0 0,0.8885 -4.4416,0 z m 11.1207,0 0,-1.1072 0,0 c -0.0911,0.3008 -0.2619,0.5694 -0.5104,0.8064 -0.3301,0.3008 -0.7287,0.4509 -1.1959,0.4509 -1.4967,0 -2.2437,-1.1158 -2.2437,-3.3484 0,-0.9748 0.1708,-1.7721 0.5105,-2.3918 0.3938,-0.7105 0.9656,-1.066 1.7197,-1.066 0.8611,0 1.4349,0.4054 1.7198,1.2166 l 0,0 0,-3.9912 0.9292,0 0,9.4307 -0.9292,0 z m -2.884,-3.0208 c 0,1.5946 0.4509,2.3919 1.3532,2.3919 0.4917,0 0.8794,-0.2912 1.1614,-0.8746 0.2461,-0.5013 0.3694,-1.075 0.3694,-1.7221 0,-0.7561 -0.1324,-1.3874 -0.3962,-1.893 -0.2644,-0.5056 -0.6337,-0.7584 -1.1072,-0.7584 -0.9206,0 -1.3806,0.9522 -1.3806,2.8562 z m 11.3644,3.0208 0,-0.8611 0,0 c -0.1185,0.2278 -0.3233,0.4375 -0.615,0.6289 -0.401,0.2547 -0.8611,0.3823 -1.3806,0.3823 -0.5373,0 -0.9633,-0.1592 -1.278,-0.4783 -0.3142,-0.319 -0.4715,-0.7651 -0.4715,-1.3393 0,-0.6831 0.3737,-1.2118 1.1211,-1.5855 0.5919,-0.2916 1.2525,-0.4375 1.9817,-0.4375 0.2825,0 0.4965,-0.0134 0.6423,-0.0408 0,-0.6927 -0.0139,-1.1071 -0.0413,-1.2439 -0.118,-0.601 -0.5147,-0.9018 -1.1887,-0.9018 -0.793,0 -1.2348,0.3463 -1.3259,1.0386 l -1.0386,0 c 0.009,-0.4917 0.1775,-0.8976 0.5056,-1.2166 0.4102,-0.4006 1.0204,-0.6011 1.8316,-0.6011 1.4578,0 2.1865,0.6971 2.1865,2.0911 l 0,4.565 -0.9292,0 z m 0,-2.9522 -0.5469,0 c -0.4826,0 -0.9249,0.0912 -1.3254,0.2734 -0.5378,0.2461 -0.8064,0.615 -0.8064,1.1072 0,0.2912 0.0887,0.5215 0.2662,0.6899 0.178,0.1688 0.3943,0.2528 0.6496,0.2528 0.3003,0 0.5943,-0.0912 0.8812,-0.273 0.2873,-0.1823 0.4989,-0.4284 0.6356,-0.7383 0.1641,-0.3828 0.2461,-0.8198 0.2461,-1.312 z"
           inkscape:connector-curvature="0"
           style="fill:#adada7;fill-rule:nonzero" /><path
           id="_55188416"
           class="fil1 str0"
           d="m 110.373,112.426 -12.3369,0 c -0.7738,0 -1.4252,0.178 -1.9543,0.5344 -0.5292,0.3564 -0.794,0.8908 -0.794,1.6032 l 0,14.7795 4.4278,0 -0.0307,-11.9089 1.8934,0 0,11.9089 4.3362,0 0,-11.9703 1.832,0 0,11.9703 4.5194,0 0,-14.2911 c 0,-0.8957 -0.1933,-1.5572 -0.58,-1.9846 -0.3871,-0.4275 -0.8246,-0.6414 -1.3129,-0.6414 z m 23.2781,2.1376 c 0,-0.6107 -0.2135,-1.1297 -0.6414,-1.5571 -0.4274,-0.428 -0.9465,-0.6414 -1.5571,-0.6414 l -14.7796,0 0,4.4277 12.4587,-0.0307 0,2.9316 -10.2601,0 c -0.6515,0 -1.1806,0.3257 -1.5879,0.9772 -0.4073,0.6514 -0.6107,1.2314 -0.6107,1.7404 l 0,4.7333 c 0,0.6107 0.2188,1.1297 0.6568,1.5572 0.4375,0.4274 0.9618,0.6413 1.5725,0.6413 l 12.5503,0 c 0.6106,0 1.1297,-0.2139 1.5571,-0.6413 0.4279,-0.4275 0.6414,-0.9465 0.6414,-1.5572 l 0,-12.581 z m -4.5803,8.4281 0,2.9008 -8.1225,0 0,-2.9008 8.1225,0 z m 13.2627,-6.8402 6.7793,0.0307 0,-3.8171 -9.4662,0 c -0.5704,0 -0.9978,0.3257 -1.2828,0.9772 -0.2849,0.6514 -0.4274,1.2621 -0.4274,1.832 l 0,14.1688 4.4278,0 -0.0307,-13.1916 z m 27.9505,-1.5879 c 0,-0.6107 -0.2134,-1.1297 -0.6413,-1.5571 -0.4275,-0.428 -0.9465,-0.6414 -1.5572,-0.6414 l -12.5503,0 c -0.6107,0 -1.135,0.2134 -1.5725,0.6414 -0.438,0.4274 -0.6567,0.9464 -0.6567,1.5571 l 0,10.9931 c 0,0.8957 0.1017,1.6488 0.3056,2.2595 0.2033,0.6107 0.7123,0.957 1.5264,1.0386 l 10.7183,0 0,2.2287 -7.0538,-0.0302 0,3.6032 10.0462,0.0307 c 0.9571,-0.3464 1.4353,-1.0386 1.4353,-2.0767 l 0,-18.0469 z m -12.581,9.7104 0.0307,-7.4812 8.1226,0 0,7.5119 -8.1533,-0.0307 z m 33.9662,-9.7104 c 0,-0.6107 -0.2134,-1.1297 -0.6413,-1.5571 -0.4275,-0.428 -0.9465,-0.6414 -1.5572,-0.6414 l -14.7795,0 0,4.4277 12.4586,-0.0307 0,2.9316 -10.2601,0 c -0.6514,0 -1.1806,0.3257 -1.5879,0.9772 -0.4072,0.6514 -0.6106,1.2314 -0.6106,1.7404 l 0,4.7333 c 0,0.6107 0.2187,1.1297 0.6567,1.5572 0.4375,0.4274 0.9618,0.6413 1.5725,0.6413 l 12.5503,0 c 0.6107,0 1.1297,-0.2139 1.5572,-0.6413 0.4279,-0.4275 0.6413,-0.9465 0.6413,-1.5572 l 0,-12.581 z m -4.5803,8.4281 0,2.9008 -8.1225,0 0,-2.9008 8.1225,0 z m 13.2627,-6.8402 6.7793,0.0307 0,-3.8171 -9.4662,0 c -0.5704,0 -0.9978,0.3257 -1.2828,0.9772 -0.2849,0.6514 -0.4274,1.2621 -0.4274,1.832 l 0,14.1688 4.4278,0 -0.0307,-13.1916 z m 10.9725,13.1916 4.4278,0 0,-16.978 -4.4278,0 0,16.978 z m 25.9353,-2.1985 c 0,0.6107 -0.2188,1.1297 -0.6563,1.5572 -0.4379,0.4274 -0.9623,0.6413 -1.5729,0.6413 l -12.5503,0 c -0.6107,0 -1.1298,-0.2139 -1.5572,-0.6413 -0.4274,-0.4275 -0.6414,-0.9465 -0.6414,-1.5572 l 0,-10.8708 c 0.0816,-0.8146 0.2648,-1.5476 0.5498,-2.199 0.2849,-0.651 0.6716,-1.0583 1.1604,-1.2214 l 10.8401,0 0,-6.7788 4.4278,0 0,21.07 z m -12.5503,-9.7411 0,7.5119 8.1225,0 0,-7.5119 -8.1225,0 z m 30.6989,-4.9775 -10.9932,0 c -0.6922,-0.1626 -1.323,-0.0254 -1.8934,0.4121 -0.5699,0.438 -0.8549,1.0131 -0.8549,1.7255 l 0,12.581 c 0,0.6107 0.2188,1.1297 0.6568,1.5572 0.4375,0.4274 0.9618,0.6413 1.5725,0.6413 l 12.5503,0 c 0.6106,0 1.1297,-0.2139 1.5571,-0.6413 0.4279,-0.4275 0.6414,-0.9465 0.6414,-1.5572 l 0,-12.7033 c -0.1626,-0.5699 -0.5699,-1.0381 -1.2214,-1.4046 -0.6514,-0.3665 -1.323,-0.5699 -2.0152,-0.6107 z m -1.1912,12.4894 -8.1225,0 0,-7.5119 8.1225,0 0,7.5119 z"
           inkscape:connector-curvature="0"
           style="fill:#d4470f;fill-rule:nonzero;stroke:#ffffff;stroke-width:0.17640001" /></g></g></g></svg>
