<?xml version="1.0" encoding="UTF-8" standalone="no"?>
<!-- Creator: CorelDRAW -->

<svg
   xmlns:dc="http://purl.org/dc/elements/1.1/"
   xmlns:cc="http://creativecommons.org/ns#"
   xmlns:rdf="http://www.w3.org/1999/02/22-rdf-syntax-ns#"
   xmlns:svg="http://www.w3.org/2000/svg"
   xmlns="http://www.w3.org/2000/svg"
   xmlns:sodipodi="http://sodipodi.sourceforge.net/DTD/sodipodi-0.dtd"
   xmlns:inkscape="http://www.inkscape.org/namespaces/inkscape"
   xml:space="preserve"
   width="200"
   height="80"
   style="clip-rule:evenodd;fill-rule:evenodd;image-rendering:optimizeQuality;shape-rendering:geometricPrecision;text-rendering:geometricPrecision"
   viewBox="0 0 56.444444 22.577778"
   id="svg2"
   version="1.1"
   inkscape:version="0.91 r13725"
   sodipodi:docname="logo_white.svg"><metadata
     id="metadata28"><rdf:RDF><cc:Work
         rdf:about=""><dc:format>image/svg+xml</dc:format><dc:type
           rdf:resource="http://purl.org/dc/dcmitype/StillImage" /><dc:title>Estores Margarido</dc:title></cc:Work></rdf:RDF></metadata><sodipodi:namedview
     pagecolor="#000000"
     bordercolor="#666666"
     borderopacity="1"
     objecttolerance="10"
     gridtolerance="10"
     guidetolerance="10"
     inkscape:pageopacity="0"
     inkscape:pageshadow="2"
     inkscape:window-width="946"
     inkscape:window-height="1043"
     id="namedview26"
     showgrid="false"
     fit-margin-top="0"
     fit-margin-left="0"
     fit-margin-right="0"
     fit-margin-bottom="0"
     units="px"
     inkscape:zoom="1.5287448"
     inkscape:cx="88.656244"
     inkscape:cy="-65.734187"
     inkscape:window-x="960"
     inkscape:window-y="0"
     inkscape:window-maximized="0"
     inkscape:current-layer="svg2" /><defs
     id="defs4"><style
       type="text/css"
       id="style6"><![CDATA[
    .str0 {stroke:white;stroke-width:0.1764}
    .fil4 {fill:#5C5C4F}
    .fil2 {fill:#BEBEB9}
    .fil3 {fill:#D4470F}
    .fil0 {fill:#5C5C4F;fill-rule:nonzero}
    .fil5 {fill:#ADADA7;fill-rule:nonzero}
    .fil1 {fill:#D4470F;fill-rule:nonzero}
   ]]></style></defs><path
     id="_55192368"
     class="fil0"
     d="m 33.86277,8.4105384 c -1.287659,0.00324 -1.931476,0.5596418 -1.931476,1.6690396 0,1.112667 0.647062,1.669039 1.941414,1.669039 1.297571,-0.0033 1.946446,-0.561277 1.946446,-1.673995 0,-1.1093977 -0.652171,-1.6640836 -1.956384,-1.6640836 z m -10.742303,0.5596418 0,-0.5547369 -3.88786,0 0,0.5547369 3.88786,0 z m 0,2.2237758 -3.88786,0 0,0.554661 3.88786,0 0,-0.554661 z m 1.356966,-2.2287317 2.966763,0 0,-0.549781 -2.917152,0 c -0.65051,0 -0.97574,0.2774068 -0.97574,0.8320671 l 0,0.2823117 c 0.0066,0.5481209 0.331923,0.8221299 0.97574,0.8221299 l 0,-0.5546606 -0.04961,0 c -0.244248,0 -0.366436,-0.1386906 -0.366436,-0.4160463 0,-0.2773302 0.122188,-0.4160208 0.366436,-0.4160208 z m 2.040558,2.2287317 -2.966687,0 0,0.549705 2.927065,0 c 0.643842,0 0.965827,-0.278991 0.965827,-0.837023 l 0,-0.277279 c 0,-0.548121 -0.321985,-0.8221556 -0.965827,-0.8221556 l 0,0.5546856 0.03962,0 c 0.244325,0 0.366436,0.136979 0.366436,0.411014 0,0.280702 -0.122111,0.421053 -0.366436,0.421053 z m 1.362025,-2.7785127 3.887833,0 0,0.5547369 -1.664134,0 0,2.7734808 -0.549781,0 0,-2.7734808 -1.673918,0 0,-0.5547369 z m 11.336611,0.549781 -2.966635,0 0,-0.549781 2.927064,0 c 0.643843,0 0.965751,0.2774068 0.965751,0.8320671 l 0,0.2823117 c 0,0.5481209 -0.321908,0.8221299 -0.965751,0.8221299 l -1.783001,0 2.714035,1.391709 -1.168742,0 -2.689356,-1.391709 0,-0.5546606 2.966635,0 c 0.244376,0 0.366487,-0.1386906 0.366487,-0.4160463 0,-0.2773302 -0.122111,-0.4160208 -0.366487,-0.4160208 z m 5.24991,0.00496 0,-0.5547369 -3.887911,0 0,0.5547369 3.887911,0 z m 0,2.2237758 -3.887911,0 0,0.554661 3.887911,0 0,-0.554661 z m 1.356966,-2.2287317 2.966687,0 0,-0.549781 -2.917127,0 c -0.65051,0 -0.975663,0.2774068 -0.975663,0.8320671 l 0,0.2823117 c 0.0065,0.5481209 0.33182,0.8221299 0.975663,0.8221299 l 0,-0.5546606 -0.04956,0 c -0.244325,0 -0.366487,-0.1386906 -0.366487,-0.4160463 0,-0.2773302 0.122162,-0.4160208 0.366487,-0.4160208 z m 2.040507,2.2287317 -2.96661,0 0,0.549705 2.926988,0 c 0.643893,0 0.965802,-0.278991 0.965802,-0.837023 l 0,-0.277279 c 0,-0.548121 -0.321909,-0.8221556 -0.965802,-0.8221556 l 0,0.5546856 0.03962,0 c 0.244401,0 0.366487,0.136979 0.366487,0.411014 0,0.280702 -0.122086,0.421053 -0.366487,0.421053 z M 35.259435,10.074622 c 0,0.74291 -0.462259,1.114378 -1.386727,1.114378 -0.927789,0 -1.391709,-0.371468 -1.391709,-1.114378 0,-0.7395901 0.46392,-1.1093977 1.391709,-1.1093977 0.924468,0 1.386727,0.3698076 1.386727,1.1093977 z"
     inkscape:connector-curvature="0"
     style="fill:#ffffff;fill-rule:nonzero" /><polygon
     id="_55192296"
     class="fil1"
     points="212.132,101.371 212.132,99.1999 196.913,99.1999 196.913,101.371 "
     style="fill:#d4470f;fill-rule:nonzero"
     transform="matrix(0.25546258,0,0,0.25546258,-9.7252769,-15.534659)" /><polygon
     id="_55192224"
     class="fil1"
     points="128.573,101.371 128.573,99.1999 113.354,99.1999 113.354,101.371 "
     style="fill:#d4470f;fill-rule:nonzero"
     transform="matrix(0.25546258,0,0,0.25546258,-9.7252769,-15.534659)" /><path
     style="fill:none;fill-opacity:1;stroke:#ffffff;stroke-width:0.08466666;stroke-miterlimit:4;stroke-dasharray:none"
     inkscape:connector-curvature="0"
     d="m 12.40749,4.2529615 -0.899484,0.6986902 0.09971,0.2945483 0.103923,0.3234668 0.102951,0.3474035 0.112991,0.3861828 0.04223,0.1402234 0.03262,0.1349353 0.02815,0.1347055 0.02365,0.1345266 0.0185,0.1294684 0.01849,0.1295706 0.0095,0.1291363 0.0089,0.1243081 0.0043,0.1242059 0.0037,0.1194288 -0.0053,0.1189689 -0.0053,0.1189945 -0.0098,0.1188923 -0.01063,0.1140896 -0.01568,0.1090569 -0.01954,0.1137064 -0.02028,0.1090059 -0.02028,0.1090059 -0.02473,0.1088526 -0.03004,0.10382 -0.06003,0.2078699 -0.03007,0.1040244 -0.03461,0.103871 -0.03536,0.099017 -0.03983,0.09889 -0.07523,0.1981368 -0.0806,0.1934107 -0.08062,0.1935895 -0.167532,0.3779058 -0.158872,0.379311 -0.07342,0.185491 -0.06892,0.185849 -0.06381,0.191163 -0.05017,0.192108 -0.02741,0.09603 -0.01824,0.09646 -0.02284,0.09633 -0.01377,0.09677 -0.01372,0.09687 -0.01305,0.101777 -0.0046,0.09736 -0.0039,0.102312 -0.0039,0.102313 0.0052,0.102824 0.0052,0.102849 0.0098,0.10313 0.01502,0.10824 0.01901,0.10359 0.02419,0.108725 0.02953,0.113936 0.06157,0.21326 0.06026,0.203629 0.05886,0.193769 0.06215,0.184239 0.06535,0.174583 0.06402,0.164825 0.06264,0.154938 0.07046,0.14546 0.91757,-0.63066 -0.07117,-0.146687 -0.06333,-0.156164 -0.06476,-0.166127 -0.06606,-0.175963 -0.06287,-0.18567 -0.05965,-0.195327 -0.061,-0.205162 -0.06236,-0.214946 -0.02994,-0.114805 -0.0246,-0.109568 -0.01931,-0.104356 -0.01533,-0.109057 -0.01012,-0.103871 -0.0054,-0.10359 -0.0055,-0.103565 0.0038,-0.103105 0.0038,-0.103028 0.0044,-0.09805 0.01293,-0.102517 0.01364,-0.09751 0.01362,-0.09746 0.02281,-0.09705 0.01814,-0.0971 0.02741,-0.09667 0.05015,-0.193334 0.06384,-0.192491 0.06898,-0.187101 0.07352,-0.186666 0.159102,-0.3817638 0.167839,-0.3803071 0.0808,-0.1948669 0.0807,-0.1945858 0.07528,-0.1994396 0.0399,-0.099528 0.03538,-0.099682 0.03459,-0.1045352 0.03002,-0.1047142 0.06003,-0.2092494 0.02999,-0.1044841 0.02473,-0.1095935 0.02018,-0.1097467 0.02018,-0.1097212 0.01947,-0.1144472 0.01558,-0.1098489 0.0104,-0.1148816 0.0097,-0.1196842 0.0051,-0.1198375 0.0051,-0.1198119 -0.0039,-0.1202718 -0.0046,-0.1250489 -0.0091,-0.1252534 -0.0098,-0.1300049 L 12.97965,6.2935455 12.960745,6.1631319 12.936681,6.0276345 12.908095,5.8919328 12.875012,5.7560012 12.832248,5.6147048 12.717801,5.2256097 12.613572,4.875626 12.508423,4.5497324 12.40749,4.2529615 Z M 3.1655948,4.1772935 0.35678374,7.342296 l -0.0410273,0.051808 -0.0368888,0.047133 -0.0356881,0.05707 -0.0315752,0.052395 -0.0261338,0.057607 -0.026236,0.057684 -0.0214078,0.057964 -0.016043,0.06315 -0.0160686,0.063227 -0.01187901,0.058501 -0.01070388,0.068515 -0.0064888,0.063763 -0.0017116,0.064096 -0.0017627,0.064096 0.0036531,0.069281 0.0078682,0.064658 0.0084303,0.069613 0.01267094,0.064939 0.017397,0.065194 0.0180101,0.070176 0.0222253,0.065475 0.0269768,0.065705 0.0270024,0.065731 0.0318051,0.065986 0.031192,0.061056 0.0365823,0.066242 0.0407718,0.061515 0.0401332,0.056559 0.045549,0.061796 0.0497641,0.057045 0.049713,0.057019 0.0539026,0.052293 2.76129502,2.6793422 2.7589959,2.677095 0.8838749,-0.638146 -2.7819874,-2.701516 -2.7844144,-2.7037907 -0.054337,-0.052779 -0.050122,-0.05753 -0.050173,-0.057556 -0.045983,-0.062333 -0.040516,-0.05707 -0.041155,-0.062026 -0.036965,-0.066803 -0.031499,-0.061541 -0.032112,-0.066522 -0.027309,-0.066267 -0.0272578,-0.066241 -0.0224807,-0.06596 -0.01824,-0.070738 -0.017678,-0.065705 -0.0127987,-0.065398 -0.00866,-0.070176 -0.007996,-0.065143 -0.003806,-0.069818 0.001635,-0.064581 0.001635,-0.064504 0.006463,-0.064249 0.0106017,-0.069 0.0118535,-0.058859 0.016043,-0.063687 0.0160431,-0.06361 0.0214844,-0.058297 0.0262871,-0.058067 0.026236,-0.058016 0.031703,-0.052727 0.035816,-0.057454 0.037068,-0.047388 0.041232,-0.052114 2.8216098,-3.1826805 2.7501824,-3.09112281 0.039597,-0.0445527 0.044834,-0.0393668 -0.8578178,0.73639647 -0.044604,0.039214 -0.039443,0.044374 -2.7383545,3.0746199 z m 6.3973195,12.5363155 0.050939,-0.03319 0.9102895,-0.61753 -0.05117,0.03334 -0.05127,0.03339 -0.05196,0.0283 -0.05664,0.0282 -0.05344,0.01821 -0.05735,0.02312 -0.05883,0.013 -0.05886,0.01305 -0.06415,0.0078 -0.059599,0.008 -0.064939,0.0028 -0.061004,-0.002 -0.060979,-0.002 -0.066395,-0.0074 -0.062461,-0.01229 -0.062435,-0.01226 -0.0678,-0.01755 -0.063176,-0.01737 -0.064581,-0.02754 -0.059191,-0.02225 -0.065245,-0.03257 -0.060545,-0.03239 -0.061311,-0.03755 -0.06126,-0.03748 -0.062001,-0.04261 -0.057965,-0.04741 -0.057939,-0.04752 -0.053979,-0.0524 -0.835848,-0.807262 -0.00751,-0.19663 -0.00209,-0.19129 0.00736,-0.190703 0.00726,-0.1906 0.012083,-0.190218 0.017346,-0.184878 0.021433,-0.189477 0.026747,-0.184137 0.031473,-0.183754 0.036787,-0.178313 0.036097,-0.183244 0.045472,-0.18263 0.046111,-0.177393 0.04537,-0.182298 0.055282,-0.176627 0.055333,-0.176474 0.055308,-0.176294 0.059855,-0.175912 0.064479,-0.175477 0.064402,-0.175324 0.069,-0.17489 0.06826,-0.179692 0.068847,-0.174532 0.073446,-0.174072 L 9.1165956,10.301651 9.267574,9.9550396 9.5803113,9.2501161 9.7342275,8.9011543 9.8909793,8.54343 10.042775,8.1862678 l 0.14615,-0.3614796 0.07526,-0.1802799 0.06989,-0.1852615 0.06525,-0.1853125 0.06972,-0.1848528 0.124845,-0.3746103 0.05968,-0.1895788 0.0596,-0.1894255 0.05498,-0.189451 0.05423,-0.1940749 0.04956,-0.1941516 0.04427,-0.199082 0.0443,-0.1988776 0.03962,-0.1989032 0.03439,-0.2038336 0.03434,-0.2036547 0.02452,-0.2087641 0.0245,-0.2086107 0.01985,-0.2087129 0.01926,-0.2132857 0.01014,-0.2136178 0.0049,-0.2186249 -2.81e-4,-0.2234787 -0.0042,-0.2187526 -0.889649,0.709394 0.0038,0.2172454 -1.02e-4,0.2219204 -0.0053,0.2170665 -0.01045,0.2121872 -0.01954,0.2118807 -0.02018,0.2072823 -0.02476,0.2071802 -0.02478,0.2073845 -0.03446,0.2023008 -0.03459,0.2024541 -0.0398,0.1975748 -0.04432,0.1976003 -0.044374,0.197728 -0.049662,0.1929254 -0.054235,0.192772 -0.055027,0.1882504 -0.059548,0.1881993 -0.059727,0.188327 L 9.5760706,7.7714987 9.506406,7.9551508 9.4412375,8.1392627 9.3714451,8.3233234 9.296288,8.5024794 9.1503422,8.8616342 8.9988784,9.2164973 8.8423565,9.5719734 8.688798,9.9186873 8.3767249,10.619089 l -0.1506463,0.344364 -0.1463801,0.345359 -0.073292,0.172974 -0.068771,0.173357 -0.068106,0.178543 -0.068949,0.17374 -0.0643,0.174098 -0.064428,0.174378 -0.059829,0.174686 -0.055206,0.175119 -0.055308,0.175273 -0.055257,0.175477 -0.045421,0.180996 -0.046137,0.176218 -0.045498,0.181327 -0.036199,0.181992 -0.036863,0.177061 -0.031652,0.182451 -0.026926,0.182784 -0.021612,0.188148 -0.017627,0.18355 -0.012313,0.188812 -0.00759,0.189196 -0.00764,0.189323 0.00171,0.18986 0.0071,0.195173 0.8290016,0.800032 0.05352,0.05191 0.057453,0.04703 0.057556,0.04706 0.061464,0.04215 0.060826,0.03709 0.060775,0.03717 0.060161,0.03209 0.06476,0.03221 0.058808,0.02202 0.064019,0.02721 0.062767,0.01712 0.06734,0.01732 0.062026,0.01206 0.062001,0.01214 0.06596,0.0072 0.060621,0.002 0.060596,0.002 0.064581,-0.0028 0.059191,-0.008 0.063789,-0.0078 0.058475,-0.01305 0.058501,-0.01298 0.057045,-0.02307 0.053085,-0.01816 0.05633,-0.02805 0.05168,-0.02823 0.05099,-0.03321 z"
     class="fil2"
     id="_55192128" /><path
     style="fill:#ffffff"
     inkscape:connector-curvature="0"
     d="M 1.4655424,6.5980569 C 0.97707243,7.2152545 1.1733443,8.0583832 1.710531,8.5801655 L 7.276984,13.985473 C 7.091978,12.938281 7.081453,11.904219 7.1851963,10.848111 7.58124,7.5848322 9.1285002,4.6285937 9.8619588,1.4450957 L 8.8013803,0.40717675 C 8.2964074,-0.01231835 7.6125852,-0.19096334 7.0769057,0.27967538 5.2053613,2.3847381 3.3341746,4.4902607 1.4655424,6.5980569 Z"
     class="fil3"
     id="_55192056" /><path
     style="fill:#d4470f;fill-opacity:1"
     inkscape:connector-curvature="0"
     d="m 10.980553,15.846109 1.583229,-1.944249 c -0.80578,-1.28605 -1.236158,-2.850733 -0.95354,-4.3583962 0.35328,-1.5994512 1.169176,-3.095389 1.123934,-4.7630742 -0.01374,-0.1992608 -0.03865,-0.3922884 -0.06709,-0.5899398 L 11.443502,2.9969542 c 0.03165,1.6566748 -0.341937,3.2600602 -0.978575,4.7851973 -0.9471785,2.3424135 -2.2765802,4.5822325 -2.1771286,7.1893555 0.4735509,0.457406 0.8407784,0.931468 1.4398637,1.186982 0.4609819,0.12676 0.9328469,0.0806 1.2528909,-0.31238 z"
     class="fil4"
     id="_55191984" /><path
     style="fill:#ffffff"
     inkscape:connector-curvature="0"
     d="M 12.622309,13.829998 16.30659,9.3053472 C 16.704882,8.6744057 16.464415,7.9443192 15.98343,7.4360508 L 12.683466,4.2105547 c 0.379669,1.1162693 0.754713,2.1842817 0.553128,3.3702412 -0.294242,1.5996811 -1.532954,3.0064621 -1.155432,4.6883261 0.13818,0.529676 0.301702,1.067374 0.541147,1.560876 z"
     class="fil3"
     id="_55191912" /><path
     style="fill:#ffffff;fill-rule:nonzero"
     inkscape:connector-curvature="0"
     d="m 14.70231,22.148371 0,-2.409191 1.166187,0 0,0.226953 -0.893863,0 0,0.806623 0.851942,0 0,0.226825 -0.851942,0 0,0.921811 0.925234,0 0,0.226979 -1.197558,0 z m 2.543514,-1.023051 0.139584,0.08382 c 0.144362,0.08617 0.23053,0.142037 0.258452,0.167532 0.08617,0.08149 0.129187,0.183959 0.129187,0.307347 0,0.335167 -0.204906,0.5027 -0.613978,0.5027 -0.154785,0 -0.305508,-0.02327 -0.450994,-0.06972 l 0,-0.216556 c 0.172795,0.05822 0.314832,0.08727 0.425984,0.08727 0.267648,0 0.401587,-0.08959 0.401587,-0.268772 0,-0.07217 -0.03725,-0.137362 -0.111765,-0.195582 -0.01862,-0.01162 -0.08149,-0.04657 -0.188582,-0.104765 l -0.150136,-0.08027 c -0.125611,-0.06754 -0.20833,-0.118764 -0.247901,-0.153686 -0.08604,-0.07904 -0.129187,-0.178057 -0.129187,-0.296694 0,-0.137388 0.04951,-0.244963 0.148424,-0.323033 0.09889,-0.07794 0.239215,-0.116925 0.420695,-0.116925 0.09779,0 0.228205,0.01862 0.391063,0.05589 l 0,0.219979 c -0.13726,-0.05125 -0.26655,-0.07684 -0.387512,-0.07684 -0.100115,0 -0.180995,0.02095 -0.242638,0.06287 -0.06177,0.0419 -0.09253,0.09301 -0.09253,0.153559 0,0.05819 0.0337,0.109415 0.10124,0.153661 0.06752,0.03492 0.133812,0.07097 0.199006,0.108214 z m 2.232845,0.831019 0,0.21298 c -0.07684,0.01165 -0.146687,0.0174 -0.209556,0.0174 -0.165182,0 -0.283334,-0.0337 -0.354403,-0.101215 -0.07097,-0.06752 -0.106503,-0.176856 -0.106503,-0.328192 l 0,-1.071947 -0.272297,0 0,-0.199005 0.272297,0 0,-0.387511 0.237504,-0.15011 0,0.537621 0.446932,0 0,0.199005 -0.446932,0 0,1.023051 c 0,0.186283 0.09082,0.279297 0.272297,0.279297 0.04425,0 0.09779,-0.01042 0.160661,-0.03137 z m 1.485668,0.230377 c -0.232854,0 -0.406237,-0.08369 -0.520224,-0.25135 -0.104765,-0.149011 -0.15711,-0.35379 -0.15711,-0.614464 0,-0.260776 0.05235,-0.466781 0.15711,-0.618015 0.116312,-0.169959 0.28972,-0.254901 0.520224,-0.254901 0.232726,0 0.408459,0.08494 0.527198,0.254901 0.104791,0.151234 0.15711,0.357239 0.15711,0.618015 0,0.260674 -0.05232,0.465453 -0.15711,0.614464 -0.118739,0.16766 -0.294472,0.25135 -0.527198,0.25135 z m -0.405036,-0.869365 c 0,0.446932 0.135063,0.670359 0.405036,0.670359 0.274622,0 0.41201,-0.223427 0.41201,-0.670359 0,-0.446932 -0.137388,-0.670334 -0.41201,-0.670334 -0.269973,0 -0.405036,0.223402 -0.405036,0.670334 z m 2.075633,0.83102 0,-1.662014 0.237504,0 0,0.321193 0,0 c 0.105864,-0.239701 0.293246,-0.359564 0.56212,-0.359564 l 0,0.254901 c -0.183933,0 -0.323518,0.06864 -0.418984,0.206005 -0.09547,0.13726 -0.143136,0.321218 -0.143136,0.551595 l 0,0.687884 -0.237504,0 z m 2.728673,-0.206005 0,0.195582 c -0.104791,0.03247 -0.231628,0.04877 -0.380639,0.04877 -0.260649,0 -0.460778,-0.07794 -0.600491,-0.233825 -0.139712,-0.156011 -0.209428,-0.386387 -0.209428,-0.69141 0,-0.256024 0.05403,-0.455643 0.162244,-0.598778 0.108342,-0.143136 0.270586,-0.214717 0.487142,-0.214717 0.18848,0 0.334068,0.05932 0.436381,0.178083 0.09547,0.11409 0.143161,0.265298 0.143161,0.453906 l 0,0.08027 -0.95663,0 0,0.09779 c 0,0.172181 0.03834,0.324641 0.115188,0.457354 0.104791,0.181634 0.262999,0.272323 0.474879,0.272323 0.08617,0 0.19548,-0.01507 0.328193,-0.04534 z m -0.900863,-0.98113 0.66691,0 c 0,-0.07219 -0.02327,-0.138486 -0.06984,-0.199031 -0.05822,-0.07684 -0.140811,-0.115188 -0.247927,-0.115188 -0.193129,0 -0.309544,0.104765 -0.34914,0.314219 z m 2.316662,0.164084 0.139585,0.08382 c 0.144362,0.08617 0.230529,0.142037 0.258477,0.167532 0.08614,0.08149 0.129162,0.183959 0.129162,0.307347 0,0.335167 -0.204907,0.5027 -0.613979,0.5027 -0.154785,0 -0.305508,-0.02327 -0.450968,-0.06972 l 0,-0.216556 c 0.172795,0.05822 0.314806,0.08727 0.425958,0.08727 0.267648,0 0.401613,-0.08959 0.401613,-0.268772 0,-0.07217 -0.03727,-0.137362 -0.111765,-0.195582 -0.01862,-0.01162 -0.08149,-0.04657 -0.188608,-0.104765 l -0.150135,-0.08027 c -0.125611,-0.06754 -0.20833,-0.118764 -0.247901,-0.153686 -0.08604,-0.07904 -0.129162,-0.178057 -0.129162,-0.296694 0,-0.137388 0.04951,-0.244963 0.148398,-0.323033 0.09889,-0.07794 0.239215,-0.116925 0.420721,-0.116925 0.09779,0 0.22818,0.01862 0.391037,0.05589 l 0,0.219979 c -0.13726,-0.05125 -0.26655,-0.07684 -0.387486,-0.07684 -0.100141,0 -0.18102,0.02095 -0.242664,0.06287 -0.06174,0.0419 -0.09253,0.09301 -0.09253,0.153559 0,0.05819 0.03372,0.109415 0.10124,0.153661 0.06752,0.03492 0.133811,0.07097 0.199005,0.108214 z m 3.430403,0.817046 0,0.195582 c -0.104765,0.03247 -0.231603,0.04877 -0.38064,0.04877 -0.260648,0 -0.460777,-0.07794 -0.60049,-0.233825 -0.139712,-0.156011 -0.209428,-0.386387 -0.209428,-0.69141 0,-0.256024 0.05403,-0.455643 0.162244,-0.598778 0.108342,-0.143136 0.270586,-0.214717 0.487142,-0.214717 0.18848,0 0.334068,0.05932 0.436407,0.178083 0.09547,0.11409 0.143135,0.265298 0.143135,0.453906 l 0,0.08027 -0.956631,0 0,0.09779 c 0,0.172181 0.03837,0.324641 0.115189,0.457354 0.10479,0.181634 0.262998,0.272323 0.474879,0.272323 0.08617,0 0.19548,-0.01507 0.328193,-0.04534 z m -0.900864,-0.98113 0.666911,0 c 0,-0.07219 -0.02327,-0.138486 -0.06984,-0.199031 -0.05822,-0.07684 -0.140811,-0.115188 -0.247927,-0.115188 -0.19313,0 -0.309544,0.104765 -0.349141,0.314219 z m 2.578435,1.187135 0.768151,-2.409191 0.331744,0 0.778675,2.409191 -0.272425,0 -0.240927,-0.743754 -0.85884,0 -0.233952,0.743754 -0.272426,0 z m 0.932362,-2.16129 -0.352691,1.190685 0.712255,0 -0.352692,-1.190685 -0.0069,0 z m 1.82832,2.16129 0,-2.409191 0.237376,0 0,2.409191 -0.237376,0 z m 2.306112,0 0,-0.384088 0,0 c -0.08676,0.281622 -0.260163,0.422433 -0.520837,0.422433 -0.137975,0 -0.246189,-0.05109 -0.323518,-0.153559 -0.07046,-0.09312 -0.105404,-0.212979 -0.105404,-0.359666 l 0,-1.187134 0.237402,0 0,0.921811 c 0,0.186155 0.01053,0.311894 0.03147,0.377088 0.0326,0.10944 0.103564,0.164084 0.213004,0.164084 0.144235,0 0.261875,-0.09192 0.352564,-0.275849 0.07684,-0.155883 0.115316,-0.323543 0.115316,-0.502699 l 0,-0.684435 0.237376,0 0,1.662014 -0.237376,0 z m 1.356379,0 0,-1.662014 0.237376,0 0,0.384062 0,0 c 0.08027,-0.281622 0.237375,-0.422433 0.471941,-0.422433 0.262513,0 0.40381,0.126837 0.425371,0.380512 l 0,0 c 0.03027,-0.09301 0.07684,-0.172182 0.139712,-0.237376 0.09079,-0.09547 0.20133,-0.143136 0.331616,-0.143136 0.135038,0 0.240927,0.05122 0.31777,0.153559 0.07217,0.09314 0.108214,0.213004 0.108214,0.359691 l 0,1.187135 -0.237376,0 0,-0.921811 c 0,-0.186156 -0.01055,-0.312993 -0.0315,-0.380538 -0.03249,-0.107089 -0.103565,-0.16066 -0.212877,-0.16066 -0.128064,0 -0.231628,0.09314 -0.310796,0.279425 -0.06984,0.155883 -0.104765,0.322292 -0.104765,0.499251 l 0,0.684333 -0.237376,0 0,-0.921811 c 0,-0.186156 -0.01055,-0.311895 -0.0315,-0.377089 -0.0326,-0.109312 -0.103564,-0.164109 -0.212979,-0.164109 -0.125636,0 -0.229303,0.09204 -0.310668,0.275874 -0.06987,0.158336 -0.10479,0.325843 -0.10479,0.502802 l 0,0.684333 -0.237376,0 z m 3.164466,0 0,-1.662014 0.237376,0 0,1.662014 -0.237376,0 z m 0.007,-1.951734 0.146584,-0.46788 0.307347,0 -0.233952,0.46788 -0.219979,0 z m 1.359827,1.951734 0,-1.662014 0.237478,0 0,0.384062 0,0 c 0.09365,-0.281622 0.268261,-0.422433 0.524286,-0.422433 0.135523,0 0.242638,0.05122 0.320095,0.153559 0.07268,0.09314 0.108827,0.213004 0.108827,0.359691 l 0,1.187135 -0.237504,0 0,-0.921811 c 0,-0.186156 -0.01042,-0.311895 -0.03137,-0.377089 -0.0326,-0.109312 -0.103564,-0.164109 -0.213004,-0.164109 -0.144362,0 -0.261875,0.09204 -0.352692,0.275874 -0.07904,0.158336 -0.118637,0.325843 -0.118637,0.502802 l 0,0.684333 -0.237478,0 z m 2.317148,0 0,-1.662014 0.237376,0 0,1.662014 -0.237376,0 z m -0.03834,-2.094998 0,-0.314193 0.314193,0 0,0.314193 -0.314193,0 z m 1.966781,2.133343 c -0.232854,0 -0.406262,-0.08369 -0.520224,-0.25135 -0.104765,-0.149011 -0.15711,-0.35379 -0.15711,-0.614464 0,-0.260776 0.05235,-0.466781 0.15711,-0.618015 0.116312,-0.169959 0.28972,-0.254901 0.520224,-0.254901 0.232726,0 0.408459,0.08494 0.527198,0.254901 0.104791,0.151234 0.15711,0.357239 0.15711,0.618015 0,0.260674 -0.05232,0.465453 -0.15711,0.614464 -0.118739,0.16766 -0.294472,0.25135 -0.527198,0.25135 z m -0.405036,-0.869365 c 0,0.446932 0.135063,0.670359 0.405036,0.670359 0.274622,0 0.41201,-0.223427 0.41201,-0.670359 0,-0.446932 -0.137388,-0.670334 -0.41201,-0.670334 -0.269973,0 -0.405036,0.223402 -0.405036,0.670334 z m 1.988367,1.260427 0.04534,-0.778548 0.310796,0 -0.122188,0.778548 -0.233953,0 z m 2.271216,-0.429407 0,-2.409191 0.272298,0 0,2.182212 0.862365,0 0,0.226979 -1.134663,0 z m 2.840923,0 0,-0.282848 0,0 c -0.02327,0.07684 -0.06691,0.14546 -0.130388,0.206005 -0.08433,0.07684 -0.186156,0.115188 -0.305508,0.115188 -0.382351,0 -0.573181,-0.285046 -0.573181,-0.855391 0,-0.249025 0.04363,-0.452705 0.130413,-0.611016 0.100601,-0.181506 0.246675,-0.272323 0.439319,-0.272323 0.219979,0 0.366563,0.103565 0.439345,0.310796 l 0,0 0,-1.019602 0.237376,0 0,2.409191 -0.237376,0 z M 53.04612,21.376669 c 0,0.407361 0.115188,0.611041 0.345692,0.611041 0.125611,0 0.224653,-0.07439 0.296694,-0.223427 0.06287,-0.128064 0.09437,-0.274623 0.09437,-0.439932 0,-0.193156 -0.03382,-0.354429 -0.101215,-0.483591 -0.06754,-0.129162 -0.161886,-0.193743 -0.282848,-0.193743 -0.235179,0 -0.352691,0.243252 -0.352691,0.729652 z m 2.903179,0.771702 0,-0.219979 0,0 c -0.03027,0.05819 -0.08259,0.111765 -0.15711,0.16066 -0.10244,0.06507 -0.219979,0.09766 -0.352691,0.09766 -0.137261,0 -0.246088,-0.04067 -0.326482,-0.122188 -0.08027,-0.08149 -0.12045,-0.195455 -0.12045,-0.342141 0,-0.174507 0.09547,-0.30957 0.286399,-0.405036 0.151208,-0.07449 0.319967,-0.111765 0.50625,-0.111765 0.07217,0 0.126837,-0.0034 0.164084,-0.01042 0,-0.176959 -0.0036,-0.282822 -0.01055,-0.31777 -0.03014,-0.153533 -0.131487,-0.230376 -0.303668,-0.230376 -0.202582,0 -0.315446,0.08847 -0.338718,0.265324 l -0.265324,0 c 0.0023,-0.125611 0.04534,-0.229304 0.129162,-0.310796 0.104791,-0.102339 0.260674,-0.153559 0.467906,-0.153559 0.372413,0 0.558568,0.178083 0.558568,0.534198 l 0,1.166187 -0.237375,0 z m 0,-0.754177 -0.139713,0 c -0.123286,0 -0.236277,0.0233 -0.33859,0.06984 -0.137388,0.06287 -0.206005,0.157109 -0.206005,0.282848 0,0.07439 0.02266,0.133223 0.068,0.176243 0.04547,0.04312 0.100729,0.06458 0.165949,0.06458 0.07672,0 0.151821,-0.0233 0.225113,-0.06974 0.07339,-0.04657 0.127451,-0.10944 0.162372,-0.188608 0.04192,-0.09779 0.06287,-0.209428 0.06287,-0.335167 z"
     class="fil5"
     id="_55188488" /><path
     style="fill:#d4470f;fill-rule:nonzero;stroke:none;stroke-width:0.0450636"
     inkscape:connector-curvature="0"
     d="m 18.470894,13.185977 -3.151616,0 c -0.197677,0 -0.364085,0.04547 -0.49925,0.136519 -0.135191,0.09105 -0.202838,0.227566 -0.202838,0.409558 l 0,3.775609 1.131138,0 -0.0078,-3.042278 0.483693,0 0,3.042278 1.107737,0 0,-3.057964 0.468007,0 0,3.057964 1.154538,0 0,-3.650841 c 0,-0.228818 -0.04938,-0.397807 -0.148169,-0.506991 -0.09889,-0.109211 -0.210654,-0.163854 -0.335397,-0.163854 z m 5.946684,0.546077 c 0,-0.156011 -0.05454,-0.288596 -0.163854,-0.397781 -0.109184,-0.109338 -0.241795,-0.163854 -0.397781,-0.163854 l -3.775634,0 0,1.131112 3.182731,-0.0078 0,0.748914 -2.621071,0 c -0.166434,0 -0.301599,0.0832 -0.405649,0.249638 -0.10405,0.166409 -0.156011,0.314577 -0.156011,0.444608 l 0,1.209181 c 0,0.156011 0.05589,0.288596 0.167788,0.397806 0.111764,0.109185 0.245703,0.163828 0.401714,0.163828 l 3.206132,0 c 0.155986,0 0.288597,-0.05464 0.397781,-0.163828 0.109313,-0.10921 0.163854,-0.241795 0.163854,-0.397806 l 0,-3.213975 z m -1.170095,2.153064 0,0.741046 -2.074995,0 0,-0.741046 2.074995,0 z m 3.388123,-1.747415 1.731858,0.0078 0,-0.975127 -2.41826,0 c -0.145716,0 -0.254901,0.0832 -0.327708,0.249638 -0.07278,0.166409 -0.109184,0.32242 -0.109184,0.468008 l 0,3.619598 1.131137,0 -0.0078,-3.36996 z m 7.140307,-0.405649 c 0,-0.156011 -0.05452,-0.288596 -0.163828,-0.397781 -0.10921,-0.109338 -0.241795,-0.163854 -0.397806,-0.163854 l -3.206132,0 c -0.156011,0 -0.28995,0.05452 -0.401715,0.163854 -0.111893,0.109185 -0.167763,0.24177 -0.167763,0.397781 l 0,2.808326 c 0,0.228817 0.02598,0.421206 0.07807,0.577217 0.05194,0.156011 0.181966,0.244478 0.389938,0.265324 l 2.738124,0 0,0.569349 -1.801982,-0.0077 0,0.920483 2.566429,0.0078 c 0.244503,-0.08849 0.366665,-0.265324 0.366665,-0.53052 l 0,-4.610307 z m -3.213975,2.480644 0.0078,-1.911167 2.07502,0 0,1.919009 -2.082863,-0.0078 z m 8.677093,-2.480644 c 0,-0.156011 -0.05451,-0.288596 -0.163828,-0.397781 -0.10921,-0.109338 -0.241795,-0.163854 -0.397806,-0.163854 l -3.775609,0 0,1.131112 3.182706,-0.0078 0,0.748914 -2.621072,0 c -0.166408,0 -0.301599,0.0832 -0.405649,0.249638 -0.104024,0.166409 -0.155985,0.314577 -0.155985,0.444608 l 0,1.209181 c 0,0.156011 0.05587,0.288596 0.167762,0.397806 0.111765,0.109185 0.245704,0.163828 0.401715,0.163828 l 3.206132,0 c 0.156011,0 0.288596,-0.05464 0.397806,-0.163828 0.109313,-0.10921 0.163828,-0.241795 0.163828,-0.397806 l 0,-3.213975 z m -1.170095,2.153064 0,0.741046 -2.074995,0 0,-0.741046 2.074995,0 z m 3.388124,-1.747415 1.731857,0.0078 0,-0.975127 -2.41826,0 c -0.145716,0 -0.2549,0.0832 -0.327707,0.249638 -0.07278,0.166409 -0.109185,0.32242 -0.109185,0.468008 l 0,3.619598 1.131137,0 -0.0078,-3.36996 z m 2.803063,3.36996 1.131137,0 0,-4.337244 -1.131137,0 0,4.337244 z m 6.625499,-0.561634 c 0,0.156011 -0.0559,0.288596 -0.167661,0.397806 -0.111867,0.109185 -0.245831,0.163828 -0.401817,0.163828 l -3.206132,0 c -0.156011,0 -0.288621,-0.05464 -0.397806,-0.163828 -0.109185,-0.10921 -0.163854,-0.241795 -0.163854,-0.397806 l 0,-2.777083 c 0.02085,-0.2081 0.06765,-0.395354 0.140454,-0.561762 0.07278,-0.166306 0.171568,-0.270356 0.296438,-0.312022 l 2.76924,0 0,-1.73173 1.131138,0 0,5.382597 z m -3.206132,-2.488487 0,1.919009 2.074994,0 0,-1.919009 -2.074994,0 z m 7.84242,-1.271565 -2.808352,0 c -0.176831,-0.04154 -0.337976,-0.0065 -0.483692,0.105276 -0.145588,0.111893 -0.218395,0.258809 -0.218395,0.440801 l 0,3.213975 c 0,0.156011 0.05589,0.288596 0.167788,0.397806 0.111764,0.109185 0.245703,0.163828 0.401714,0.163828 l 3.206132,0 c 0.155986,0 0.288597,-0.05464 0.397781,-0.163828 0.109313,-0.10921 0.163854,-0.241795 0.163854,-0.397806 l 0,-3.245218 C 56.307202,13.555223 56.203152,13.435615 56.036718,13.341988 55.87031,13.248361 55.698741,13.1964 55.52191,13.185977 Z m -0.304307,3.190574 -2.074995,0 0,-1.919009 2.074995,0 0,1.919009 z"
     class="fil1 str0"
     id="_55188416" /></svg>